%TF.GenerationSoftware,KiCad,Pcbnew,9.0.8-9.0.8~ubuntu24.04.1*%
%TF.CreationDate,2026-05-08T00:23:21+02:00*%
%TF.ProjectId,rp2350_keylogger,72703233-3530-45f6-9b65-796c6f676765,rev?*%
%TF.SameCoordinates,Original*%
%TF.FileFunction,Soldermask,Top*%
%TF.FilePolarity,Negative*%
%FSLAX46Y46*%
G04 Gerber Fmt 4.6, Leading zero omitted, Abs format (unit mm)*
G04 Created by KiCad (PCBNEW 9.0.8-9.0.8~ubuntu24.04.1) date 2026-05-08 00:23:21*
%MOMM*%
%LPD*%
G01*
G04 APERTURE LIST*
G04 Aperture macros list*
%AMRoundRect*
0 Rectangle with rounded corners*
0 $1 Rounding radius*
0 $2 $3 $4 $5 $6 $7 $8 $9 X,Y pos of 4 corners*
0 Add a 4 corners polygon primitive as box body*
4,1,4,$2,$3,$4,$5,$6,$7,$8,$9,$2,$3,0*
0 Add four circle primitives for the rounded corners*
1,1,$1+$1,$2,$3*
1,1,$1+$1,$4,$5*
1,1,$1+$1,$6,$7*
1,1,$1+$1,$8,$9*
0 Add four rect primitives between the rounded corners*
20,1,$1+$1,$2,$3,$4,$5,0*
20,1,$1+$1,$4,$5,$6,$7,0*
20,1,$1+$1,$6,$7,$8,$9,0*
20,1,$1+$1,$8,$9,$2,$3,0*%
G04 Aperture macros list end*
%ADD10O,0.900000X1.600000*%
%ADD11R,1.050000X0.650000*%
%ADD12C,1.000000*%
%ADD13RoundRect,0.140000X-0.170000X0.140000X-0.170000X-0.140000X0.170000X-0.140000X0.170000X0.140000X0*%
%ADD14RoundRect,0.250000X-0.350000X0.450000X-0.350000X-0.450000X0.350000X-0.450000X0.350000X0.450000X0*%
%ADD15RoundRect,0.140000X0.170000X-0.140000X0.170000X0.140000X-0.170000X0.140000X-0.170000X-0.140000X0*%
%ADD16RoundRect,0.375000X-0.375000X0.625000X-0.375000X-0.625000X0.375000X-0.625000X0.375000X0.625000X0*%
%ADD17RoundRect,0.500000X-1.400000X0.500000X-1.400000X-0.500000X1.400000X-0.500000X1.400000X0.500000X0*%
%ADD18RoundRect,0.135000X-0.185000X0.135000X-0.185000X-0.135000X0.185000X-0.135000X0.185000X0.135000X0*%
%ADD19RoundRect,0.140000X0.140000X0.170000X-0.140000X0.170000X-0.140000X-0.170000X0.140000X-0.170000X0*%
%ADD20R,1.524000X1.524000*%
%ADD21C,1.524000*%
%ADD22O,3.500000X2.000000*%
%ADD23RoundRect,0.135000X0.135000X0.185000X-0.135000X0.185000X-0.135000X-0.185000X0.135000X-0.185000X0*%
%ADD24R,0.470000X0.530000*%
%ADD25RoundRect,0.140000X-0.140000X-0.170000X0.140000X-0.170000X0.140000X0.170000X-0.140000X0.170000X0*%
%ADD26RoundRect,0.250000X0.250000X0.475000X-0.250000X0.475000X-0.250000X-0.475000X0.250000X-0.475000X0*%
%ADD27R,1.500000X1.600000*%
%ADD28C,1.600000*%
%ADD29C,3.000000*%
%ADD30R,0.700000X1.700000*%
%ADD31RoundRect,0.135000X-0.135000X-0.185000X0.135000X-0.185000X0.135000X0.185000X-0.135000X0.185000X0*%
%ADD32RoundRect,0.050000X-0.350000X-0.050000X0.350000X-0.050000X0.350000X0.050000X-0.350000X0.050000X0*%
%ADD33RoundRect,0.050000X-0.050000X-0.350000X0.050000X-0.350000X0.050000X0.350000X-0.050000X0.350000X0*%
%ADD34R,3.400000X3.400000*%
G04 APERTURE END LIST*
D10*
%TO.C,J3*%
X124815600Y-93573600D03*
X118215600Y-93573600D03*
%TD*%
D11*
%TO.C,SW1*%
X107366200Y-93082000D03*
X103241200Y-93082000D03*
X107391200Y-90932000D03*
X103241200Y-90932000D03*
%TD*%
D12*
%TO.C,J5*%
X121324000Y-76552000D03*
X113324000Y-76542000D03*
%TD*%
D13*
%TO.C,C4*%
X114401600Y-93372400D03*
X114401600Y-92412400D03*
%TD*%
D14*
%TO.C,Y1*%
X112335200Y-90296400D03*
X112335200Y-92496400D03*
X110635200Y-92496400D03*
X110635200Y-90296400D03*
%TD*%
D15*
%TO.C,C3*%
X114279200Y-89636400D03*
X114279200Y-90596400D03*
%TD*%
D16*
%TO.C,U2*%
X109016800Y-76809600D03*
X106716800Y-76809600D03*
D17*
X106716800Y-83109600D03*
D16*
X104416800Y-76809600D03*
%TD*%
D18*
%TO.C,R2*%
X115468400Y-91084400D03*
X115468400Y-92104400D03*
%TD*%
D19*
%TO.C,C15*%
X112598800Y-85014400D03*
X111638800Y-85014400D03*
%TD*%
D20*
%TO.C,J2*%
X102094000Y-81500000D03*
D21*
X102094000Y-84000000D03*
X102094000Y-86000000D03*
X102094000Y-88500000D03*
D22*
X99994000Y-79000000D03*
X99994000Y-91000000D03*
%TD*%
D19*
%TO.C,C13*%
X112344800Y-81386400D03*
X111384800Y-81386400D03*
%TD*%
D23*
%TO.C,R5*%
X123799600Y-78333600D03*
X122779600Y-78333600D03*
%TD*%
D24*
%TO.C,C7*%
X118760800Y-78214400D03*
X119790800Y-78214400D03*
%TD*%
D15*
%TO.C,C17*%
X121920000Y-81173200D03*
X121920000Y-80213200D03*
%TD*%
D13*
%TO.C,C9*%
X121590800Y-78314400D03*
X121590800Y-79274400D03*
%TD*%
D18*
%TO.C,R6*%
X101295200Y-92760800D03*
X101295200Y-93780800D03*
%TD*%
D19*
%TO.C,C8*%
X112598800Y-83164400D03*
X111638800Y-83164400D03*
%TD*%
D25*
%TO.C,C16*%
X121008800Y-88244400D03*
X121968800Y-88244400D03*
%TD*%
D19*
%TO.C,C18*%
X112851600Y-87558400D03*
X111891600Y-87558400D03*
%TD*%
D26*
%TO.C,C5*%
X106360000Y-85547200D03*
X104460000Y-85547200D03*
%TD*%
D24*
%TO.C,C6*%
X118760800Y-79214400D03*
X119790800Y-79214400D03*
%TD*%
D27*
%TO.C,J1*%
X128252400Y-88759200D03*
D28*
X128252400Y-86259200D03*
X128252400Y-84259200D03*
X128252400Y-81759200D03*
D29*
X130962400Y-91829200D03*
X130962400Y-78689200D03*
%TD*%
D26*
%TO.C,C1*%
X102026800Y-76555600D03*
X100126800Y-76555600D03*
%TD*%
D30*
%TO.C,L1*%
X118690800Y-76614400D03*
X120090800Y-76614400D03*
%TD*%
D25*
%TO.C,C14*%
X122024800Y-84414400D03*
X122984800Y-84414400D03*
%TD*%
D31*
%TO.C,R7*%
X115312000Y-78130400D03*
X116332000Y-78130400D03*
%TD*%
D25*
%TO.C,C11*%
X122052800Y-83314400D03*
X123012800Y-83314400D03*
%TD*%
D19*
%TO.C,C12*%
X116352800Y-79146400D03*
X115392800Y-79146400D03*
%TD*%
D13*
%TO.C,C10*%
X116636800Y-90119200D03*
X116636800Y-91079200D03*
%TD*%
D32*
%TO.C,U1*%
X113790800Y-81014400D03*
X113790800Y-81414400D03*
X113790800Y-81814400D03*
X113790800Y-82214400D03*
X113790800Y-82614400D03*
X113790800Y-83014400D03*
X113790800Y-83414400D03*
X113790800Y-83814400D03*
X113790800Y-84214400D03*
X113790800Y-84614400D03*
X113790800Y-85014400D03*
X113790800Y-85414400D03*
X113790800Y-85814400D03*
X113790800Y-86214400D03*
X113790800Y-86614400D03*
D33*
X114440800Y-87264400D03*
X114840800Y-87264400D03*
X115240800Y-87264400D03*
X115640800Y-87264400D03*
X116040800Y-87264400D03*
X116440800Y-87264400D03*
X116840800Y-87264400D03*
X117240800Y-87264400D03*
X117640800Y-87264400D03*
X118040800Y-87264400D03*
X118440800Y-87264400D03*
X118840800Y-87264400D03*
X119240800Y-87264400D03*
X119640800Y-87264400D03*
X120040800Y-87264400D03*
D32*
X120690800Y-86614400D03*
X120690800Y-86214400D03*
X120690800Y-85814400D03*
X120690800Y-85414400D03*
X120690800Y-85014400D03*
X120690800Y-84614400D03*
X120690800Y-84214400D03*
X120690800Y-83814400D03*
X120690800Y-83414400D03*
X120690800Y-83014400D03*
X120690800Y-82614400D03*
X120690800Y-82214400D03*
X120690800Y-81814400D03*
X120690800Y-81414400D03*
X120690800Y-81014400D03*
D33*
X120040800Y-80364400D03*
X119640800Y-80364400D03*
X119240800Y-80364400D03*
X118840800Y-80364400D03*
X118440800Y-80364400D03*
X118040800Y-80364400D03*
X117640800Y-80364400D03*
X117240800Y-80364400D03*
X116840800Y-80364400D03*
X116440800Y-80364400D03*
X116040800Y-80364400D03*
X115640800Y-80364400D03*
X115240800Y-80364400D03*
X114840800Y-80364400D03*
X114440800Y-80364400D03*
D34*
X117240800Y-83814400D03*
%TD*%
D31*
%TO.C,R8*%
X115312000Y-77114400D03*
X116332000Y-77114400D03*
%TD*%
M02*
