M48
; DRILL file {KiCad 7.0.11+dfsg-1build4} date Thu 30 Apr 2026 10:24:13 AM CEST
; FORMAT={-:-/ absolute / inch / decimal}
; #@! TF.CreationDate,2026-04-30T10:24:13+02:00
; #@! TF.GenerationSoftware,Kicad,Pcbnew,7.0.11+dfsg-1build4
; #@! TF.FileFunction,Plated,1,2,PTH
FMAT,2
INCH
; #@! TA.AperFunction,Plated,PTH,ViaDrill
T1C0.0118
; #@! TA.AperFunction,Plated,PTH,ComponentDrill
T2C0.0300
; #@! TA.AperFunction,Plated,PTH,ComponentDrill
T3C0.0374
; #@! TA.AperFunction,Plated,PTH,ComponentDrill
T4C0.0394
; #@! TA.AperFunction,Plated,PTH,ComponentDrill
T5C0.0906
%
G90
G05
T1
X2.2Y-2.0
X2.2Y-2.7
X2.25Y-2.35
X2.5Y-2.2
X2.5Y-2.35
X2.65Y-2.5
X2.95Y-2.2
X2.95Y-2.35
X3.25Y-2.5
X3.35Y-2.2
X3.75Y-2.2
X3.75Y-2.35
X3.75Y-2.5
X4.1Y-2.5
X4.15Y-2.2
X4.5Y-2.05
X4.5Y-2.65
T2
X4.5762Y-2.2122
X4.5762Y-2.3106
X4.5762Y-2.3894
X4.5762Y-2.4878
T3
X2.111Y-2.2122
X2.111Y-2.3106
X2.111Y-2.3894
X2.111Y-2.4878
T4
X2.4Y-2.0
X2.4Y-2.7
X2.5Y-2.0
X2.5Y-2.7
X2.6Y-2.0
X2.6Y-2.7
X2.7Y-2.0
X2.7Y-2.7
X2.8Y-2.0
X2.8Y-2.7
X2.9Y-2.0
X2.9Y-2.7
X3.0Y-2.0
X3.0Y-2.7
X3.1Y-2.0
X3.1Y-2.7
X3.2Y-2.0
X3.2Y-2.7
X3.3Y-2.0
X3.3Y-2.7
X3.4Y-2.0
X3.4Y-2.7
X3.5Y-2.0
X3.5Y-2.7
X3.6Y-2.0
X3.6Y-2.7
X3.7Y-2.0
X3.7Y-2.7
X3.8Y-2.0
X3.8Y-2.7
X3.9Y-2.0
X3.9Y-2.7
X4.0Y-2.0
X4.0Y-2.7
X4.1Y-2.0
X4.1Y-2.7
X4.2Y-2.0
X4.2Y-2.7
X4.3Y-2.0
X4.3Y-2.25
X4.3Y-2.35
X4.3Y-2.45
X4.3Y-2.7
T5
X2.0043Y-2.0913
X2.0043Y-2.6087
T4
G00X4.6294Y-2.1138
M15
G01X4.6884Y-2.1138
M16
G05
G00X4.6294Y-2.5862
M15
G01X4.6884Y-2.5862
M16
G05
M30
