%TF.GenerationSoftware,KiCad,Pcbnew,9.0.8-9.0.8~ubuntu24.04.1*%
%TF.CreationDate,2026-05-08T00:12:30+02:00*%
%TF.ProjectId,rp2350_keylogger,72703233-3530-45f6-9b65-796c6f676765,rev?*%
%TF.SameCoordinates,Original*%
%TF.FileFunction,Copper,L4,Bot*%
%TF.FilePolarity,Positive*%
%FSLAX46Y46*%
G04 Gerber Fmt 4.6, Leading zero omitted, Abs format (unit mm)*
G04 Created by KiCad (PCBNEW 9.0.8-9.0.8~ubuntu24.04.1) date 2026-05-08 00:12:30*
%MOMM*%
%LPD*%
G01*
G04 APERTURE LIST*
G04 Aperture macros list*
%AMRoundRect*
0 Rectangle with rounded corners*
0 $1 Rounding radius*
0 $2 $3 $4 $5 $6 $7 $8 $9 X,Y pos of 4 corners*
0 Add a 4 corners polygon primitive as box body*
4,1,4,$2,$3,$4,$5,$6,$7,$8,$9,$2,$3,0*
0 Add four circle primitives for the rounded corners*
1,1,$1+$1,$2,$3*
1,1,$1+$1,$4,$5*
1,1,$1+$1,$6,$7*
1,1,$1+$1,$8,$9*
0 Add four rect primitives between the rounded corners*
20,1,$1+$1,$2,$3,$4,$5,0*
20,1,$1+$1,$4,$5,$6,$7,0*
20,1,$1+$1,$6,$7,$8,$9,0*
20,1,$1+$1,$8,$9,$2,$3,0*%
G04 Aperture macros list end*
%TA.AperFunction,SMDPad,CuDef*%
%ADD10RoundRect,0.100000X0.100000X0.575000X-0.100000X0.575000X-0.100000X-0.575000X0.100000X-0.575000X0*%
%TD*%
%TA.AperFunction,HeatsinkPad*%
%ADD11O,0.900000X1.600000*%
%TD*%
%TA.AperFunction,SMDPad,CuDef*%
%ADD12RoundRect,0.250000X0.550000X0.450000X-0.550000X0.450000X-0.550000X-0.450000X0.550000X-0.450000X0*%
%TD*%
%TA.AperFunction,SMDPad,CuDef*%
%ADD13RoundRect,0.250000X0.700000X0.700000X-0.700000X0.700000X-0.700000X-0.700000X0.700000X-0.700000X0*%
%TD*%
%TA.AperFunction,SMDPad,CuDef*%
%ADD14R,1.778000X1.397000*%
%TD*%
%TA.AperFunction,SMDPad,CuDef*%
%ADD15R,1.270000X2.286000*%
%TD*%
%TA.AperFunction,SMDPad,CuDef*%
%ADD16R,1.200000X1.397000*%
%TD*%
%TA.AperFunction,SMDPad,CuDef*%
%ADD17R,0.700000X2.000000*%
%TD*%
%TA.AperFunction,ComponentPad*%
%ADD18C,1.000000*%
%TD*%
%TA.AperFunction,ComponentPad*%
%ADD19R,1.524000X1.524000*%
%TD*%
%TA.AperFunction,ComponentPad*%
%ADD20C,1.524000*%
%TD*%
%TA.AperFunction,ComponentPad*%
%ADD21O,3.500000X2.000000*%
%TD*%
%TA.AperFunction,SMDPad,CuDef*%
%ADD22RoundRect,0.135000X-0.185000X0.135000X-0.185000X-0.135000X0.185000X-0.135000X0.185000X0.135000X0*%
%TD*%
%TA.AperFunction,SMDPad,CuDef*%
%ADD23RoundRect,0.135000X-0.135000X-0.185000X0.135000X-0.185000X0.135000X0.185000X-0.135000X0.185000X0*%
%TD*%
%TA.AperFunction,SMDPad,CuDef*%
%ADD24RoundRect,0.135000X0.135000X0.185000X-0.135000X0.185000X-0.135000X-0.185000X0.135000X-0.185000X0*%
%TD*%
%TA.AperFunction,ComponentPad*%
%ADD25R,1.500000X1.600000*%
%TD*%
%TA.AperFunction,ComponentPad*%
%ADD26C,1.600000*%
%TD*%
%TA.AperFunction,ComponentPad*%
%ADD27C,3.000000*%
%TD*%
%TA.AperFunction,SMDPad,CuDef*%
%ADD28RoundRect,0.140000X0.170000X-0.140000X0.170000X0.140000X-0.170000X0.140000X-0.170000X-0.140000X0*%
%TD*%
%TA.AperFunction,SMDPad,CuDef*%
%ADD29R,1.050000X0.650000*%
%TD*%
%TA.AperFunction,SMDPad,CuDef*%
%ADD30RoundRect,0.250000X0.475000X-0.250000X0.475000X0.250000X-0.475000X0.250000X-0.475000X-0.250000X0*%
%TD*%
%TA.AperFunction,SMDPad,CuDef*%
%ADD31RoundRect,0.135000X0.185000X-0.135000X0.185000X0.135000X-0.185000X0.135000X-0.185000X-0.135000X0*%
%TD*%
%TA.AperFunction,ViaPad*%
%ADD32C,0.600000*%
%TD*%
%TA.AperFunction,Conductor*%
%ADD33C,0.400000*%
%TD*%
%TA.AperFunction,Conductor*%
%ADD34C,0.150000*%
%TD*%
%TA.AperFunction,Conductor*%
%ADD35C,0.250000*%
%TD*%
%TA.AperFunction,Conductor*%
%ADD36C,0.200000*%
%TD*%
%TA.AperFunction,Conductor*%
%ADD37C,0.800000*%
%TD*%
%TA.AperFunction,Conductor*%
%ADD38C,0.500000*%
%TD*%
G04 APERTURE END LIST*
D10*
%TO.P,J3,1,VBUS*%
%TO.N,VBUS*%
X122815600Y-90898600D03*
%TO.P,J3,2,D-*%
%TO.N,/USB_D-*%
X122165600Y-90898600D03*
%TO.P,J3,3,D+*%
%TO.N,/USB_D+*%
X121515600Y-90898600D03*
%TO.P,J3,4,ID*%
%TO.N,unconnected-(J3-ID-Pad4)*%
X120865600Y-90898600D03*
%TO.P,J3,5,GND*%
%TO.N,GND*%
X120215600Y-90898600D03*
D11*
%TO.P,J3,6,Shield*%
X124815600Y-93573600D03*
D12*
X124715600Y-91123600D03*
D13*
X122715600Y-93573600D03*
X120315600Y-93573600D03*
D12*
X118315600Y-91123600D03*
D11*
X118215600Y-93573600D03*
%TD*%
D14*
%TO.P,J5,13*%
%TO.N,GND*%
X125224000Y-86612000D03*
D15*
%TO.P,J5,12*%
X125984000Y-76962000D03*
%TO.P,J5,11*%
X110494000Y-76952000D03*
D16*
%TO.P,J5,10,SHIELD*%
X110464000Y-86612000D03*
D17*
%TO.P,J5,9,DET*%
%TO.N,SD_ENBL*%
X111744000Y-87152000D03*
%TO.P,J5,8,DAT1*%
%TO.N,Net-(J5-DAT1)*%
X112844000Y-87142000D03*
%TO.P,J5,7,DAT0*%
%TO.N,SPI0_RX*%
X113944000Y-87142000D03*
%TO.P,J5,6,VSS*%
%TO.N,GND*%
X115044000Y-87142000D03*
%TO.P,J5,5,CLK*%
%TO.N,SPI0_SCK*%
X116134000Y-87142000D03*
%TO.P,J5,4,VDD*%
%TO.N,+3V3*%
X117234000Y-87142000D03*
%TO.P,J5,3,CMD*%
%TO.N,SPI0_TX*%
X118334000Y-87142000D03*
%TO.P,J5,2,DAT3/CD*%
%TO.N,SPI0_CSn*%
X119434000Y-87142000D03*
%TO.P,J5,1,DAT2*%
%TO.N,Net-(J5-DAT2)*%
X120524000Y-87142000D03*
D18*
%TO.P,J5,*%
%TO.N,*%
X121324000Y-76552000D03*
X113324000Y-76542000D03*
%TD*%
D19*
%TO.P,J2,1,VBUS*%
%TO.N,VBUS*%
X102094000Y-81500000D03*
D20*
%TO.P,J2,2,D-*%
%TO.N,Passive_D-*%
X102094000Y-84000000D03*
%TO.P,J2,3,D+*%
%TO.N,Passive_D+*%
X102094000Y-86000000D03*
%TO.P,J2,4,GND*%
%TO.N,GND*%
X102094000Y-88500000D03*
D21*
%TO.P,J2,5,Shield*%
X99994000Y-79000000D03*
X99994000Y-91000000D03*
%TD*%
D22*
%TO.P,R9,1*%
%TO.N,SPI0_SCK*%
X116128800Y-88642000D03*
%TO.P,R9,2*%
%TO.N,+3V3*%
X116128800Y-89662000D03*
%TD*%
D23*
%TO.P,R12,1*%
%TO.N,Net-(J5-DAT2)*%
X121410000Y-88138000D03*
%TO.P,R12,2*%
%TO.N,+3V3*%
X122430000Y-88138000D03*
%TD*%
D24*
%TO.P,R10,1*%
%TO.N,SPI0_TX*%
X118317200Y-88696800D03*
%TO.P,R10,2*%
%TO.N,+3V3*%
X117297200Y-88696800D03*
%TD*%
D25*
%TO.P,J1,1,VBUS*%
%TO.N,VBUS*%
X128252400Y-88759200D03*
D26*
%TO.P,J1,2,D-*%
%TO.N,Passive_D-*%
X128252400Y-86259200D03*
%TO.P,J1,3,D+*%
%TO.N,Passive_D+*%
X128252400Y-84259200D03*
%TO.P,J1,4,GND*%
%TO.N,GND*%
X128252400Y-81759200D03*
D27*
%TO.P,J1,5,Shield*%
X130962400Y-91829200D03*
X130962400Y-78689200D03*
%TD*%
D28*
%TO.P,C19,1*%
%TO.N,+3V3*%
X124307600Y-89098000D03*
%TO.P,C19,2*%
%TO.N,GND*%
X124307600Y-88138000D03*
%TD*%
D29*
%TO.P,SW2,1,1*%
%TO.N,Net-(R4-Pad1)*%
X103215400Y-93082000D03*
X107365400Y-93082000D03*
%TO.P,SW2,2,2*%
%TO.N,/RUN*%
X103215400Y-90932000D03*
X107340400Y-90932000D03*
%TD*%
D30*
%TO.P,C2,1*%
%TO.N,+3V3*%
X109474000Y-84704000D03*
%TO.P,C2,2*%
%TO.N,GND*%
X109474000Y-82804000D03*
%TD*%
D31*
%TO.P,R4,1*%
%TO.N,Net-(R4-Pad1)*%
X101295200Y-93780800D03*
%TO.P,R4,2*%
%TO.N,GND*%
X101295200Y-92760800D03*
%TD*%
D24*
%TO.P,R11,1*%
%TO.N,SD_ENBL*%
X110540800Y-87985600D03*
%TO.P,R11,2*%
%TO.N,+3V3*%
X109520800Y-87985600D03*
%TD*%
D23*
%TO.P,R1,1*%
%TO.N,SPI0_CSn*%
X119430800Y-88694800D03*
%TO.P,R1,2*%
%TO.N,+3V3*%
X120450800Y-88694800D03*
%TD*%
D31*
%TO.P,R13,1*%
%TO.N,+3V3*%
X112572800Y-89814400D03*
%TO.P,R13,2*%
%TO.N,Net-(J5-DAT1)*%
X112572800Y-88794400D03*
%TD*%
D22*
%TO.P,R3,1*%
%TO.N,SPI0_RX*%
X114401600Y-88747600D03*
%TO.P,R3,2*%
%TO.N,+3V3*%
X114401600Y-89767600D03*
%TD*%
D32*
%TO.N,+3V3*%
X123291600Y-88646000D03*
X115011200Y-89662000D03*
%TO.N,GND*%
X115265200Y-88364400D03*
%TO.N,SPI0_SCK*%
X120142000Y-89560400D03*
%TO.N,/USB_D+*%
X121158000Y-89294800D03*
%TO.N,/USB_D-*%
X121970800Y-89306400D03*
%TO.N,GND*%
X123444000Y-87833200D03*
X122796624Y-89140976D03*
%TO.N,Passive_D+*%
X124206000Y-84328000D03*
%TO.N,+3V3*%
X121869200Y-85293200D03*
%TO.N,GND*%
X134772400Y-84632800D03*
X130251200Y-86512400D03*
X130098800Y-83362800D03*
X115214400Y-93014800D03*
X125882400Y-81940400D03*
%TO.N,+3V3*%
X123240800Y-81483200D03*
X110744000Y-84124800D03*
X106629200Y-79197200D03*
%TO.N,GND*%
X104292400Y-79197200D03*
X105511600Y-88544400D03*
X98704400Y-76657200D03*
X99212400Y-93522800D03*
X134924800Y-93421200D03*
X127152400Y-93472000D03*
X134823200Y-77114400D03*
X128219200Y-76962000D03*
%TO.N,SPI0_SCK*%
X116128800Y-85953600D03*
%TO.N,GND*%
X115140800Y-85445600D03*
%TO.N,SPI0_CSn*%
X119483329Y-89203071D03*
%TO.N,Net-(U1-~{QSPI_SS})*%
X108051600Y-80416400D03*
X102158800Y-92100400D03*
%TO.N,GND*%
X116484400Y-93980000D03*
X117094000Y-92252800D03*
%TO.N,+3V3*%
X108254800Y-87579200D03*
%TO.N,SD_ENBL*%
X112879218Y-85706969D03*
%TO.N,/RUN*%
X116027200Y-93319600D03*
%TO.N,SPI0_RX*%
X116505291Y-92808295D03*
%TO.N,SPI0_TX*%
X121976598Y-86537735D03*
%TO.N,GND*%
X111506000Y-80619600D03*
X105562400Y-90932000D03*
%TO.N,/USB_D+*%
X113131600Y-79908400D03*
%TO.N,/USB_D-*%
X112877600Y-79248000D03*
%TO.N,+3V3*%
X107696000Y-84683600D03*
%TO.N,GND*%
X111074869Y-85607661D03*
%TO.N,+3V3*%
X111779059Y-85752000D03*
%TO.N,GND*%
X109474000Y-86614000D03*
%TO.N,Passive_D-*%
X112674400Y-82092800D03*
%TO.N,Passive_D+*%
X112014000Y-82448400D03*
%TO.N,GND*%
X109474000Y-81788000D03*
X109016800Y-78536800D03*
X114808000Y-79146400D03*
X122986800Y-85242400D03*
X123901200Y-83413600D03*
X122580400Y-79298800D03*
X113517200Y-88777600D03*
X111259200Y-88828400D03*
X113114800Y-93829600D03*
X110418400Y-93959200D03*
X109250000Y-92994000D03*
X109250000Y-89641200D03*
X120590800Y-78514400D03*
X115140800Y-83464400D03*
X119390800Y-83414400D03*
X120740800Y-77964400D03*
%TO.N,+1V1*%
X118185146Y-78695271D03*
X118190800Y-81464400D03*
%TD*%
D33*
%TO.N,SPI0_RX*%
X113944000Y-88290000D02*
X114401600Y-88747600D01*
D34*
X114401600Y-88747600D02*
X114493400Y-88839400D01*
X115633800Y-89979800D02*
X116535200Y-90881200D01*
X114493400Y-88839400D02*
X115103000Y-88839400D01*
X115633800Y-89370200D02*
X115633800Y-89979800D01*
X115103000Y-88839400D02*
X115633800Y-89370200D01*
D35*
%TO.N,+3V3*%
X114401600Y-89767600D02*
X112619600Y-89767600D01*
X112619600Y-89767600D02*
X112572800Y-89814400D01*
X114905600Y-89767600D02*
X115011200Y-89662000D01*
X114401600Y-89767600D02*
X114905600Y-89767600D01*
D33*
%TO.N,GND*%
X115044000Y-88143200D02*
X115265200Y-88364400D01*
X115044000Y-87142000D02*
X115044000Y-88143200D01*
X118215600Y-93573600D02*
X118215600Y-91223600D01*
X118215600Y-91223600D02*
X118315600Y-91123600D01*
X120215600Y-90898600D02*
X118540600Y-90898600D01*
X118540600Y-90898600D02*
X118315600Y-91123600D01*
D35*
%TO.N,/USB_D+*%
X121515600Y-90898600D02*
X121515600Y-89652400D01*
X121515600Y-89652400D02*
X121158000Y-89294800D01*
%TO.N,/USB_D-*%
X122165600Y-90898600D02*
X122165600Y-89501200D01*
X122165600Y-89501200D02*
X121970800Y-89306400D01*
D33*
%TO.N,VBUS*%
X122815600Y-90898600D02*
X123747400Y-89966800D01*
X123747400Y-89966800D02*
X125374400Y-89966800D01*
X125374400Y-89966800D02*
X126582000Y-88759200D01*
X126582000Y-88759200D02*
X128252400Y-88759200D01*
D35*
%TO.N,GND*%
X123748800Y-88138000D02*
X123444000Y-87833200D01*
X124307600Y-88138000D02*
X123748800Y-88138000D01*
D36*
%TO.N,+3V3*%
X123291600Y-88646000D02*
X123855600Y-88646000D01*
X123855600Y-88646000D02*
X124307600Y-89098000D01*
D35*
X120450800Y-88694800D02*
X121873200Y-88694800D01*
X121873200Y-88694800D02*
X122430000Y-88138000D01*
X122783600Y-88138000D02*
X123291600Y-88646000D01*
X122430000Y-88138000D02*
X122783600Y-88138000D01*
%TO.N,Net-(J5-DAT2)*%
X121410000Y-88138000D02*
X121410000Y-88028000D01*
X121410000Y-88028000D02*
X120524000Y-87142000D01*
%TO.N,GND*%
X101295200Y-92760800D02*
X101295200Y-92301200D01*
X101295200Y-92301200D02*
X99994000Y-91000000D01*
D37*
%TO.N,VBUS*%
X102094000Y-81500000D02*
X108489208Y-81500000D01*
X118516517Y-77895271D02*
X121037646Y-80416400D01*
X108489208Y-81500000D02*
X112093937Y-77895271D01*
X112093937Y-77895271D02*
X118516517Y-77895271D01*
X121037646Y-80416400D02*
X129641600Y-80416400D01*
X129641600Y-80416400D02*
X131673600Y-82448400D01*
X131673600Y-82448400D02*
X131673600Y-87579200D01*
X130493600Y-88759200D02*
X128252400Y-88759200D01*
X131673600Y-87579200D02*
X130493600Y-88759200D01*
D33*
%TO.N,SPI0_SCK*%
X116134000Y-85958800D02*
X116128800Y-85953600D01*
X116134000Y-87142000D02*
X116134000Y-85958800D01*
%TO.N,+3V3*%
X117234000Y-87142000D02*
X117234000Y-85742000D01*
X112685459Y-84845600D02*
X111779059Y-85752000D01*
X117234000Y-85742000D02*
X116337600Y-84845600D01*
X116337600Y-84845600D02*
X112685459Y-84845600D01*
X116128800Y-89662000D02*
X116332000Y-89662000D01*
X116332000Y-89662000D02*
X117297200Y-88696800D01*
D34*
%TO.N,SPI0_CSn*%
X119483329Y-89203071D02*
X119483329Y-88747329D01*
X119483329Y-88747329D02*
X119430800Y-88694800D01*
%TO.N,Net-(U1-~{QSPI_SS})*%
X101346000Y-80416400D02*
X101157000Y-80605400D01*
X108051600Y-80416400D02*
X101346000Y-80416400D01*
X101157000Y-89751299D02*
X102158800Y-90753099D01*
X101157000Y-80605400D02*
X101157000Y-89751299D01*
X102158800Y-90753099D02*
X102158800Y-92100400D01*
D33*
%TO.N,GND*%
X117094000Y-92252800D02*
X117515200Y-92252800D01*
X117515200Y-92252800D02*
X118125600Y-91642400D01*
D34*
%TO.N,SPI0_RX*%
X116505291Y-92808295D02*
X116535200Y-92778386D01*
X116535200Y-92778386D02*
X116535200Y-90881200D01*
D33*
%TO.N,+3V3*%
X108661200Y-87985600D02*
X108254800Y-87579200D01*
X109520800Y-87985600D02*
X108661200Y-87985600D01*
D34*
%TO.N,SD_ENBL*%
X112667031Y-85706969D02*
X111744000Y-86630000D01*
X111744000Y-86630000D02*
X111744000Y-87152000D01*
X112879218Y-85706969D02*
X112667031Y-85706969D01*
%TO.N,/RUN*%
X107492800Y-92100400D02*
X107340400Y-92100400D01*
X108508800Y-93116400D02*
X107492800Y-92100400D01*
X107340400Y-92100400D02*
X107340400Y-90932000D01*
X108508800Y-94081600D02*
X108508800Y-93116400D01*
X116027200Y-93319600D02*
X114890200Y-94456600D01*
X114890200Y-94456600D02*
X108883800Y-94456600D01*
X108883800Y-94456600D02*
X108508800Y-94081600D01*
%TO.N,SPI0_TX*%
X121189263Y-85750400D02*
X119126000Y-85750400D01*
X121976598Y-86537735D02*
X121189263Y-85750400D01*
X119126000Y-85750400D02*
X118334000Y-86542400D01*
X118334000Y-86542400D02*
X118334000Y-87142000D01*
%TO.N,/RUN*%
X103215400Y-90932000D02*
X103690400Y-90457000D01*
X103690400Y-90457000D02*
X106865400Y-90457000D01*
X106865400Y-90457000D02*
X107340400Y-90932000D01*
D33*
%TO.N,+3V3*%
X107716400Y-84704000D02*
X107696000Y-84683600D01*
X109474000Y-84704000D02*
X107716400Y-84704000D01*
D36*
%TO.N,Passive_D+*%
X112014000Y-82448400D02*
X112014000Y-83820000D01*
X112014000Y-83820000D02*
X111506000Y-84328000D01*
D33*
X124206000Y-84328000D02*
X111506000Y-84328000D01*
X111506000Y-84328000D02*
X110286800Y-85547200D01*
X102546800Y-85547200D02*
X102094000Y-86000000D01*
X110286800Y-85547200D02*
X102546800Y-85547200D01*
%TO.N,GND*%
X109476000Y-86612000D02*
X109474000Y-86614000D01*
X110464000Y-86612000D02*
X109476000Y-86612000D01*
%TO.N,SD_ENBL*%
X111744000Y-87152000D02*
X110910400Y-87985600D01*
X110910400Y-87985600D02*
X110540800Y-87985600D01*
%TO.N,+3V3*%
X116023200Y-89767600D02*
X116128800Y-89662000D01*
%TO.N,Net-(J5-DAT1)*%
X112844000Y-87142000D02*
X112844000Y-88523200D01*
X112844000Y-88523200D02*
X112572800Y-88794400D01*
%TO.N,SPI0_RX*%
X113944000Y-87142000D02*
X113944000Y-88290000D01*
%TO.N,SPI0_SCK*%
X116128800Y-88642000D02*
X116128800Y-87147200D01*
X116128800Y-87147200D02*
X116134000Y-87142000D01*
%TO.N,+3V3*%
X117297200Y-88696800D02*
X117297200Y-87205200D01*
X117297200Y-87205200D02*
X117234000Y-87142000D01*
%TO.N,SPI0_TX*%
X118317200Y-88696800D02*
X118317200Y-87158800D01*
X118317200Y-87158800D02*
X118334000Y-87142000D01*
%TO.N,SPI0_CSn*%
X119430800Y-88694800D02*
X119430800Y-87145200D01*
X119430800Y-87145200D02*
X119434000Y-87142000D01*
D35*
%TO.N,VBUS*%
X127705200Y-89306400D02*
X128252400Y-88759200D01*
D36*
%TO.N,Passive_D-*%
X112674400Y-82092800D02*
X112430000Y-81848400D01*
D33*
X111765471Y-81848400D02*
X112430000Y-81848400D01*
X102094000Y-84000000D02*
X102490000Y-83604000D01*
X102490000Y-83604000D02*
X110183744Y-83604000D01*
X110183744Y-83604000D02*
X110947200Y-82840544D01*
X110947200Y-82840544D02*
X110947200Y-82666671D01*
X110947200Y-82666671D02*
X111765471Y-81848400D01*
X117726271Y-81848400D02*
X118674543Y-82796672D01*
X112430000Y-81848400D02*
X117726271Y-81848400D01*
X118674543Y-82796672D02*
X124789872Y-82796672D01*
D37*
%TO.N,GND*%
X109474000Y-82804000D02*
X109474000Y-81788000D01*
D36*
%TO.N,Net-(R4-Pad1)*%
X103215400Y-93082000D02*
X107365400Y-93082000D01*
X101295200Y-93780800D02*
X102516600Y-93780800D01*
X102516600Y-93780800D02*
X103215400Y-93082000D01*
D38*
%TO.N,+1V1*%
X118185146Y-79640347D02*
X118190800Y-79646001D01*
X118190800Y-79646001D02*
X118190800Y-81464400D01*
X118185146Y-78695271D02*
X118185146Y-79640347D01*
D33*
%TO.N,Passive_D-*%
X128252400Y-86259200D02*
X124789872Y-82796672D01*
%TD*%
%TA.AperFunction,Conductor*%
%TO.N,GND*%
G36*
X100244000Y-92500000D02*
G01*
X100412285Y-92500000D01*
X100449065Y-92510800D01*
X101171200Y-92510800D01*
X101238239Y-92530485D01*
X101283994Y-92583289D01*
X101295200Y-92634800D01*
X101295200Y-92886300D01*
X101292714Y-92894766D01*
X101294002Y-92903497D01*
X101283020Y-92927777D01*
X101275515Y-92953339D01*
X101268847Y-92959116D01*
X101265210Y-92967159D01*
X101242843Y-92981648D01*
X101222711Y-92999094D01*
X101212434Y-93001349D01*
X101206571Y-93005148D01*
X101172537Y-93010105D01*
X101171655Y-93010299D01*
X101171177Y-93010300D01*
X101046020Y-93010301D01*
X101039906Y-93010781D01*
X101035262Y-93010799D01*
X101035210Y-93010784D01*
X101034807Y-93010800D01*
X100482356Y-93010800D01*
X100522794Y-93149993D01*
X100556619Y-93207188D01*
X100573801Y-93274912D01*
X100556619Y-93333428D01*
X100522330Y-93391407D01*
X100522329Y-93391411D01*
X100477535Y-93545591D01*
X100477534Y-93545597D01*
X100474700Y-93581611D01*
X100474700Y-93979969D01*
X100474701Y-93979991D01*
X100477535Y-94016005D01*
X100522329Y-94170188D01*
X100522331Y-94170193D01*
X100604063Y-94308395D01*
X100604069Y-94308403D01*
X100615085Y-94319419D01*
X100648570Y-94380742D01*
X100643586Y-94450434D01*
X100601714Y-94506367D01*
X100536250Y-94530784D01*
X100527404Y-94531100D01*
X98008100Y-94531100D01*
X97941061Y-94511415D01*
X97895306Y-94458611D01*
X97884100Y-94407100D01*
X97884100Y-92060673D01*
X97903785Y-91993634D01*
X97956589Y-91947879D01*
X98025747Y-91937935D01*
X98089303Y-91966960D01*
X98096225Y-91973932D01*
X98096419Y-91973739D01*
X98266813Y-92144133D01*
X98457828Y-92282914D01*
X98668197Y-92390102D01*
X98892752Y-92463065D01*
X98892751Y-92463065D01*
X99125948Y-92500000D01*
X99744000Y-92500000D01*
X99744000Y-91500000D01*
X100244000Y-91500000D01*
X100244000Y-92500000D01*
G37*
%TD.AperFunction*%
%TA.AperFunction,Conductor*%
G36*
X117237165Y-93311012D02*
G01*
X117256752Y-93323600D01*
X117965600Y-93323600D01*
X117965600Y-93823600D01*
X117265600Y-93823600D01*
X117265600Y-94017171D01*
X117302106Y-94200697D01*
X117302108Y-94200705D01*
X117367944Y-94359647D01*
X117375413Y-94429117D01*
X117344138Y-94491596D01*
X117284049Y-94527248D01*
X117253383Y-94531100D01*
X115928942Y-94531100D01*
X115907696Y-94524861D01*
X115885608Y-94523282D01*
X115874824Y-94515209D01*
X115861903Y-94511415D01*
X115847403Y-94494681D01*
X115829675Y-94481410D01*
X115824967Y-94468789D01*
X115816148Y-94458611D01*
X115812996Y-94436693D01*
X115805258Y-94415946D01*
X115808120Y-94402785D01*
X115806204Y-94389453D01*
X115815403Y-94369309D01*
X115820110Y-94347673D01*
X115833378Y-94329947D01*
X115835229Y-94325897D01*
X115841261Y-94319419D01*
X116004261Y-94156419D01*
X116065584Y-94122934D01*
X116091942Y-94120100D01*
X116106044Y-94120100D01*
X116106045Y-94120099D01*
X116260697Y-94089337D01*
X116373366Y-94042667D01*
X116406372Y-94028997D01*
X116406372Y-94028996D01*
X116406379Y-94028994D01*
X116537489Y-93941389D01*
X116648989Y-93829889D01*
X116736594Y-93698779D01*
X116776856Y-93601573D01*
X116820696Y-93547172D01*
X116843960Y-93534467D01*
X116884470Y-93517689D01*
X117015580Y-93430084D01*
X117106152Y-93339511D01*
X117167473Y-93306028D01*
X117237165Y-93311012D01*
G37*
%TD.AperFunction*%
%TA.AperFunction,Conductor*%
G36*
X120707801Y-75551785D02*
G01*
X120753556Y-75604589D01*
X120763500Y-75673747D01*
X120734475Y-75737303D01*
X120709652Y-75759202D01*
X120686222Y-75774857D01*
X120686214Y-75774863D01*
X120546863Y-75914214D01*
X120546860Y-75914218D01*
X120437371Y-76078079D01*
X120437364Y-76078092D01*
X120361950Y-76260160D01*
X120361947Y-76260170D01*
X120323500Y-76453456D01*
X120323500Y-76453459D01*
X120323500Y-76650541D01*
X120323500Y-76650543D01*
X120323499Y-76650543D01*
X120361947Y-76843829D01*
X120361950Y-76843839D01*
X120437364Y-77025907D01*
X120437371Y-77025920D01*
X120546860Y-77189781D01*
X120546863Y-77189785D01*
X120686214Y-77329136D01*
X120686218Y-77329139D01*
X120850079Y-77438628D01*
X120850092Y-77438635D01*
X121032160Y-77514049D01*
X121032165Y-77514051D01*
X121032169Y-77514051D01*
X121032170Y-77514052D01*
X121225456Y-77552500D01*
X121225459Y-77552500D01*
X121422543Y-77552500D01*
X121552582Y-77526632D01*
X121615835Y-77514051D01*
X121797914Y-77438632D01*
X121961782Y-77329139D01*
X122101139Y-77189782D01*
X122210632Y-77025914D01*
X122286051Y-76843835D01*
X122324500Y-76650541D01*
X122324500Y-76453459D01*
X122324500Y-76453456D01*
X122286052Y-76260170D01*
X122286051Y-76260169D01*
X122286051Y-76260165D01*
X122281907Y-76250160D01*
X122210635Y-76078092D01*
X122210628Y-76078079D01*
X122101139Y-75914218D01*
X122101136Y-75914214D01*
X121961785Y-75774863D01*
X121961777Y-75774857D01*
X121938348Y-75759202D01*
X121893542Y-75705590D01*
X121884835Y-75636265D01*
X121914989Y-75573238D01*
X121974432Y-75536518D01*
X122007238Y-75532100D01*
X124743767Y-75532100D01*
X124810806Y-75551785D01*
X124856561Y-75604589D01*
X124866505Y-75673747D01*
X124859948Y-75699434D01*
X124855404Y-75711616D01*
X124855401Y-75711627D01*
X124849000Y-75771155D01*
X124849000Y-76712000D01*
X127119000Y-76712000D01*
X127119000Y-75771172D01*
X127118999Y-75771155D01*
X127112598Y-75711627D01*
X127112595Y-75711616D01*
X127108052Y-75699434D01*
X127103067Y-75629743D01*
X127136551Y-75568419D01*
X127197874Y-75534934D01*
X127224233Y-75532100D01*
X136751500Y-75532100D01*
X136818539Y-75551785D01*
X136864294Y-75604589D01*
X136875500Y-75656100D01*
X136875500Y-94407100D01*
X136855815Y-94474139D01*
X136803011Y-94519894D01*
X136751500Y-94531100D01*
X125777817Y-94531100D01*
X125710778Y-94511415D01*
X125665023Y-94458611D01*
X125655079Y-94389453D01*
X125663256Y-94359647D01*
X125729091Y-94200705D01*
X125729093Y-94200697D01*
X125765599Y-94017171D01*
X125765600Y-94017169D01*
X125765600Y-93823600D01*
X125065600Y-93823600D01*
X125065600Y-93323600D01*
X125765600Y-93323600D01*
X125765600Y-93130030D01*
X125765599Y-93130028D01*
X125729093Y-92946502D01*
X125729091Y-92946494D01*
X125657480Y-92773608D01*
X125657475Y-92773599D01*
X125553513Y-92618010D01*
X125553510Y-92618006D01*
X125432995Y-92497491D01*
X125399510Y-92436168D01*
X125404494Y-92366476D01*
X125446366Y-92310543D01*
X125481673Y-92292104D01*
X125584717Y-92257959D01*
X125584724Y-92257956D01*
X125733945Y-92165915D01*
X125857915Y-92041945D01*
X125949956Y-91892724D01*
X125949958Y-91892719D01*
X126005105Y-91726297D01*
X126005106Y-91726290D01*
X126009688Y-91681450D01*
X126009688Y-91681449D01*
X126015599Y-91623588D01*
X126015600Y-91623573D01*
X126015600Y-91373600D01*
X124965600Y-91373600D01*
X124965600Y-92143600D01*
X124975576Y-92153576D01*
X125008639Y-92163285D01*
X125054394Y-92216089D01*
X125065600Y-92267600D01*
X125065600Y-93173872D01*
X125027540Y-93081986D01*
X124957214Y-93011660D01*
X124865328Y-92973600D01*
X124765872Y-92973600D01*
X124673986Y-93011660D01*
X124603660Y-93081986D01*
X124565600Y-93173872D01*
X124565600Y-92453600D01*
X124555623Y-92443623D01*
X124522561Y-92433915D01*
X124476806Y-92381111D01*
X124465600Y-92329600D01*
X124465600Y-91247600D01*
X124485285Y-91180561D01*
X124538089Y-91134806D01*
X124589600Y-91123600D01*
X124715600Y-91123600D01*
X124715600Y-90997600D01*
X124735285Y-90930561D01*
X124788089Y-90884806D01*
X124839600Y-90873600D01*
X126015599Y-90873600D01*
X126015599Y-90623628D01*
X126015598Y-90623613D01*
X126005106Y-90520906D01*
X126005105Y-90520904D01*
X125980840Y-90447675D01*
X125978438Y-90377846D01*
X126010862Y-90320994D01*
X126791735Y-89540121D01*
X126853056Y-89506638D01*
X126922748Y-89511622D01*
X126978681Y-89553494D01*
X127002704Y-89614549D01*
X127008309Y-89666683D01*
X127058602Y-89801528D01*
X127058606Y-89801535D01*
X127144852Y-89916744D01*
X127144854Y-89916746D01*
X127260064Y-90002993D01*
X127260071Y-90002997D01*
X127394917Y-90053291D01*
X127394916Y-90053291D01*
X127401844Y-90054035D01*
X127454527Y-90059700D01*
X129050272Y-90059699D01*
X129109883Y-90053291D01*
X129244731Y-90002996D01*
X129359946Y-89916746D01*
X129446196Y-89801531D01*
X129469009Y-89740367D01*
X129510880Y-89684433D01*
X129576344Y-89660016D01*
X129585191Y-89659700D01*
X130389806Y-89659700D01*
X130456845Y-89679385D01*
X130502600Y-89732189D01*
X130512544Y-89801347D01*
X130483519Y-89864903D01*
X130424741Y-89902677D01*
X130421899Y-89903475D01*
X130318144Y-89931275D01*
X130075928Y-90031604D01*
X130075917Y-90031609D01*
X129848871Y-90162696D01*
X129736033Y-90249279D01*
X129736033Y-90249280D01*
X130343866Y-90857113D01*
X130213225Y-90952029D01*
X130085229Y-91080025D01*
X129990313Y-91210666D01*
X129382480Y-90602833D01*
X129382479Y-90602833D01*
X129295896Y-90715671D01*
X129164809Y-90942717D01*
X129164804Y-90942728D01*
X129064475Y-91184944D01*
X128996622Y-91438179D01*
X128996620Y-91438190D01*
X128962400Y-91698105D01*
X128962400Y-91960294D01*
X128996620Y-92220209D01*
X128996622Y-92220220D01*
X129064475Y-92473455D01*
X129164804Y-92715671D01*
X129164809Y-92715682D01*
X129295888Y-92942716D01*
X129295894Y-92942724D01*
X129382480Y-93055565D01*
X129990312Y-92447732D01*
X130085229Y-92578375D01*
X130213225Y-92706371D01*
X130343865Y-92801286D01*
X129736033Y-93409117D01*
X129736033Y-93409118D01*
X129848875Y-93495705D01*
X129848883Y-93495711D01*
X130075917Y-93626790D01*
X130075928Y-93626795D01*
X130318144Y-93727124D01*
X130571379Y-93794977D01*
X130571390Y-93794979D01*
X130831305Y-93829199D01*
X130831320Y-93829200D01*
X131093480Y-93829200D01*
X131093494Y-93829199D01*
X131353409Y-93794979D01*
X131353420Y-93794977D01*
X131606655Y-93727124D01*
X131848871Y-93626795D01*
X131848882Y-93626790D01*
X132075916Y-93495711D01*
X132075934Y-93495699D01*
X132188765Y-93409119D01*
X132188765Y-93409117D01*
X131580934Y-92801286D01*
X131711575Y-92706371D01*
X131839571Y-92578375D01*
X131934486Y-92447734D01*
X132542317Y-93055565D01*
X132542319Y-93055565D01*
X132628899Y-92942734D01*
X132628911Y-92942716D01*
X132759990Y-92715682D01*
X132759995Y-92715671D01*
X132860324Y-92473455D01*
X132928177Y-92220220D01*
X132928179Y-92220209D01*
X132962399Y-91960294D01*
X132962400Y-91960280D01*
X132962400Y-91698119D01*
X132962399Y-91698105D01*
X132928179Y-91438190D01*
X132928177Y-91438179D01*
X132860324Y-91184944D01*
X132759995Y-90942728D01*
X132759990Y-90942717D01*
X132628911Y-90715683D01*
X132628905Y-90715675D01*
X132542318Y-90602833D01*
X132542317Y-90602833D01*
X131934485Y-91210665D01*
X131839571Y-91080025D01*
X131711575Y-90952029D01*
X131580932Y-90857112D01*
X132188765Y-90249280D01*
X132075924Y-90162694D01*
X132075916Y-90162688D01*
X131848882Y-90031609D01*
X131848871Y-90031604D01*
X131606655Y-89931275D01*
X131353420Y-89863422D01*
X131353409Y-89863420D01*
X131093494Y-89829200D01*
X130886901Y-89829200D01*
X130819862Y-89809515D01*
X130774107Y-89756711D01*
X130764163Y-89687553D01*
X130793188Y-89623997D01*
X130839449Y-89590639D01*
X130920142Y-89557215D01*
X130920141Y-89557215D01*
X130920147Y-89557213D01*
X131014160Y-89494395D01*
X131067636Y-89458664D01*
X132373064Y-88153236D01*
X132418243Y-88085620D01*
X132471613Y-88005747D01*
X132514410Y-87902425D01*
X132539495Y-87841866D01*
X132574100Y-87667892D01*
X132574100Y-87490508D01*
X132574100Y-82359709D01*
X132572195Y-82350130D01*
X132568579Y-82331953D01*
X132549135Y-82234200D01*
X132539495Y-82185734D01*
X132499799Y-82089901D01*
X132471613Y-82021853D01*
X132407931Y-81926547D01*
X132373064Y-81874364D01*
X132373059Y-81874358D01*
X131347756Y-80849056D01*
X131314271Y-80787733D01*
X131319255Y-80718041D01*
X131361127Y-80662108D01*
X131403344Y-80641600D01*
X131606655Y-80587124D01*
X131848871Y-80486795D01*
X131848882Y-80486790D01*
X132075916Y-80355711D01*
X132075934Y-80355699D01*
X132188765Y-80269119D01*
X132188765Y-80269117D01*
X131580933Y-79661286D01*
X131711575Y-79566371D01*
X131839571Y-79438375D01*
X131934486Y-79307734D01*
X132542317Y-79915565D01*
X132542319Y-79915565D01*
X132628899Y-79802734D01*
X132628911Y-79802716D01*
X132759990Y-79575682D01*
X132759995Y-79575671D01*
X132860324Y-79333455D01*
X132928177Y-79080220D01*
X132928179Y-79080209D01*
X132962399Y-78820294D01*
X132962400Y-78820280D01*
X132962400Y-78558119D01*
X132962399Y-78558105D01*
X132928179Y-78298190D01*
X132928177Y-78298179D01*
X132860324Y-78044944D01*
X132759995Y-77802728D01*
X132759990Y-77802717D01*
X132628911Y-77575683D01*
X132628905Y-77575675D01*
X132542318Y-77462833D01*
X132542317Y-77462833D01*
X131934485Y-78070665D01*
X131839571Y-77940025D01*
X131711575Y-77812029D01*
X131580932Y-77717112D01*
X132188765Y-77109280D01*
X132075924Y-77022694D01*
X132075916Y-77022688D01*
X131848882Y-76891609D01*
X131848871Y-76891604D01*
X131606655Y-76791275D01*
X131353420Y-76723422D01*
X131353409Y-76723420D01*
X131093494Y-76689200D01*
X130831305Y-76689200D01*
X130571390Y-76723420D01*
X130571379Y-76723422D01*
X130318144Y-76791275D01*
X130075928Y-76891604D01*
X130075917Y-76891609D01*
X129848871Y-77022696D01*
X129736033Y-77109279D01*
X129736033Y-77109280D01*
X130343866Y-77717113D01*
X130213225Y-77812029D01*
X130085229Y-77940025D01*
X129990313Y-78070666D01*
X129382480Y-77462833D01*
X129382479Y-77462833D01*
X129295896Y-77575671D01*
X129164809Y-77802717D01*
X129164804Y-77802728D01*
X129064475Y-78044944D01*
X128996622Y-78298179D01*
X128996620Y-78298190D01*
X128962400Y-78558105D01*
X128962400Y-78820294D01*
X128996620Y-79080209D01*
X128996622Y-79080220D01*
X129064476Y-79333457D01*
X129064478Y-79333462D01*
X129069027Y-79344444D01*
X129076497Y-79413913D01*
X129045224Y-79476393D01*
X128985136Y-79512047D01*
X128954467Y-79515900D01*
X121462008Y-79515900D01*
X121394969Y-79496215D01*
X121374327Y-79479581D01*
X120047590Y-78152844D01*
X124849000Y-78152844D01*
X124855401Y-78212372D01*
X124855403Y-78212379D01*
X124905645Y-78347086D01*
X124905649Y-78347093D01*
X124991809Y-78462187D01*
X124991812Y-78462190D01*
X125106906Y-78548350D01*
X125106913Y-78548354D01*
X125241620Y-78598596D01*
X125241627Y-78598598D01*
X125301155Y-78604999D01*
X125301172Y-78605000D01*
X125734000Y-78605000D01*
X126234000Y-78605000D01*
X126666828Y-78605000D01*
X126666844Y-78604999D01*
X126726372Y-78598598D01*
X126726379Y-78598596D01*
X126861086Y-78548354D01*
X126861093Y-78548350D01*
X126976187Y-78462190D01*
X126976190Y-78462187D01*
X127062350Y-78347093D01*
X127062354Y-78347086D01*
X127112596Y-78212379D01*
X127112598Y-78212372D01*
X127118999Y-78152844D01*
X127119000Y-78152827D01*
X127119000Y-77212000D01*
X126234000Y-77212000D01*
X126234000Y-78605000D01*
X125734000Y-78605000D01*
X125734000Y-77212000D01*
X124849000Y-77212000D01*
X124849000Y-78152844D01*
X120047590Y-78152844D01*
X119090552Y-77195806D01*
X119090547Y-77195802D01*
X119036139Y-77159449D01*
X119036133Y-77159446D01*
X119031476Y-77156334D01*
X118943064Y-77097258D01*
X118861123Y-77063317D01*
X118779183Y-77029376D01*
X118779175Y-77029374D01*
X118605213Y-76994771D01*
X118605209Y-76994771D01*
X118605208Y-76994771D01*
X114404426Y-76994771D01*
X114337387Y-76975086D01*
X114291632Y-76922282D01*
X114281688Y-76853124D01*
X114285767Y-76834770D01*
X114286046Y-76833845D01*
X114286051Y-76833835D01*
X114314821Y-76689200D01*
X114324500Y-76640543D01*
X114324500Y-76443456D01*
X114286052Y-76250170D01*
X114286051Y-76250169D01*
X114286051Y-76250165D01*
X114214777Y-76078092D01*
X114210635Y-76068092D01*
X114210628Y-76068079D01*
X114101139Y-75904218D01*
X114101136Y-75904214D01*
X113961784Y-75764862D01*
X113953314Y-75759203D01*
X113908509Y-75705591D01*
X113899801Y-75636266D01*
X113929955Y-75573238D01*
X113989398Y-75536518D01*
X114022204Y-75532100D01*
X120640762Y-75532100D01*
X120707801Y-75551785D01*
G37*
%TD.AperFunction*%
%TA.AperFunction,Conductor*%
G36*
X109307039Y-86267385D02*
G01*
X109352794Y-86320189D01*
X109361303Y-86359303D01*
X109364000Y-86362000D01*
X110340000Y-86362000D01*
X110407039Y-86381685D01*
X110452794Y-86434489D01*
X110464000Y-86486000D01*
X110464000Y-86738000D01*
X110444315Y-86805039D01*
X110391511Y-86850794D01*
X110340000Y-86862000D01*
X109364000Y-86862000D01*
X109364000Y-87052054D01*
X109357164Y-87075334D01*
X109354581Y-87099457D01*
X109347497Y-87108255D01*
X109344315Y-87119093D01*
X109325981Y-87134979D01*
X109310764Y-87153880D01*
X109296094Y-87160876D01*
X109291511Y-87164848D01*
X109279210Y-87169692D01*
X109276912Y-87170457D01*
X109131407Y-87212731D01*
X109107286Y-87226995D01*
X109094751Y-87231174D01*
X109072505Y-87231977D01*
X109050935Y-87237450D01*
X109038271Y-87233214D01*
X109024927Y-87233697D01*
X109005780Y-87222348D01*
X108984673Y-87215289D01*
X108971898Y-87202265D01*
X108964822Y-87198071D01*
X108961728Y-87191897D01*
X108952439Y-87182427D01*
X108876589Y-87068911D01*
X108876586Y-87068907D01*
X108765092Y-86957413D01*
X108765088Y-86957410D01*
X108633985Y-86869809D01*
X108633972Y-86869802D01*
X108488301Y-86809464D01*
X108488289Y-86809461D01*
X108333645Y-86778700D01*
X108333642Y-86778700D01*
X108175958Y-86778700D01*
X108175955Y-86778700D01*
X108021310Y-86809461D01*
X108021298Y-86809464D01*
X107875627Y-86869802D01*
X107875614Y-86869809D01*
X107744511Y-86957410D01*
X107744507Y-86957413D01*
X107633013Y-87068907D01*
X107633010Y-87068911D01*
X107545409Y-87200014D01*
X107545402Y-87200027D01*
X107485064Y-87345698D01*
X107485061Y-87345710D01*
X107454300Y-87500353D01*
X107454300Y-87658046D01*
X107485061Y-87812689D01*
X107485064Y-87812701D01*
X107545402Y-87958372D01*
X107545409Y-87958385D01*
X107633009Y-88089487D01*
X107633013Y-88089492D01*
X107744507Y-88200986D01*
X107744511Y-88200989D01*
X107875614Y-88288590D01*
X107875627Y-88288597D01*
X108019984Y-88348391D01*
X108026915Y-88353022D01*
X108031957Y-88354119D01*
X108060199Y-88375260D01*
X108060212Y-88375269D01*
X108117086Y-88432142D01*
X108184943Y-88499999D01*
X108214659Y-88529715D01*
X108329384Y-88606372D01*
X108329385Y-88606372D01*
X108329389Y-88606375D01*
X108385129Y-88629463D01*
X108456871Y-88659180D01*
X108483791Y-88664534D01*
X108572722Y-88682224D01*
X108592206Y-88686100D01*
X108592207Y-88686100D01*
X108975115Y-88686100D01*
X109038235Y-88703367D01*
X109131407Y-88758469D01*
X109131414Y-88758471D01*
X109285591Y-88803264D01*
X109285594Y-88803264D01*
X109285596Y-88803265D01*
X109321619Y-88806100D01*
X109719980Y-88806099D01*
X109756004Y-88803265D01*
X109910193Y-88758469D01*
X109967682Y-88724469D01*
X110035402Y-88707288D01*
X110093917Y-88724469D01*
X110151407Y-88758469D01*
X110151410Y-88758469D01*
X110151412Y-88758471D01*
X110305591Y-88803264D01*
X110305594Y-88803264D01*
X110305596Y-88803265D01*
X110341619Y-88806100D01*
X110739980Y-88806099D01*
X110776004Y-88803265D01*
X110930193Y-88758469D01*
X111068398Y-88676735D01*
X111068399Y-88676733D01*
X111071449Y-88674930D01*
X111091481Y-88665389D01*
X111100713Y-88661967D01*
X111114728Y-88659180D01*
X111169863Y-88636341D01*
X111172040Y-88635535D01*
X111204651Y-88633271D01*
X111237144Y-88629778D01*
X111240748Y-88630766D01*
X111241742Y-88630698D01*
X111242986Y-88631380D01*
X111258457Y-88635625D01*
X111286517Y-88646091D01*
X111346127Y-88652500D01*
X111628301Y-88652499D01*
X111695339Y-88672183D01*
X111741094Y-88724987D01*
X111752300Y-88776498D01*
X111752300Y-88993569D01*
X111752301Y-88993591D01*
X111755135Y-89029605D01*
X111799929Y-89183788D01*
X111799932Y-89183795D01*
X111833928Y-89241281D01*
X111851109Y-89309005D01*
X111833928Y-89367519D01*
X111799932Y-89425004D01*
X111799929Y-89425011D01*
X111755135Y-89579191D01*
X111755134Y-89579197D01*
X111752300Y-89615211D01*
X111752300Y-90013569D01*
X111752301Y-90013591D01*
X111755135Y-90049605D01*
X111799929Y-90203788D01*
X111799931Y-90203793D01*
X111881663Y-90341995D01*
X111881669Y-90342003D01*
X111995196Y-90455530D01*
X111995200Y-90455533D01*
X111995202Y-90455535D01*
X112133407Y-90537269D01*
X112174068Y-90549082D01*
X112287591Y-90582064D01*
X112287594Y-90582064D01*
X112287596Y-90582065D01*
X112323619Y-90584900D01*
X112821980Y-90584899D01*
X112858004Y-90582065D01*
X113012193Y-90537269D01*
X113150398Y-90455535D01*
X113163155Y-90442778D01*
X113176515Y-90429419D01*
X113237838Y-90395934D01*
X113264196Y-90393100D01*
X113763642Y-90393100D01*
X113826763Y-90410368D01*
X113962207Y-90490469D01*
X113995013Y-90500000D01*
X114116391Y-90535264D01*
X114116394Y-90535264D01*
X114116396Y-90535265D01*
X114152419Y-90538100D01*
X114650780Y-90538099D01*
X114686804Y-90535265D01*
X114840993Y-90490469D01*
X114859664Y-90479426D01*
X114926265Y-90462526D01*
X114926265Y-90462500D01*
X114926369Y-90462500D01*
X114927386Y-90462242D01*
X114931186Y-90462500D01*
X114932358Y-90462500D01*
X115090043Y-90462500D01*
X115125082Y-90455530D01*
X115202346Y-90440161D01*
X115271935Y-90446388D01*
X115314217Y-90474097D01*
X115923381Y-91083261D01*
X115956866Y-91144584D01*
X115959700Y-91170942D01*
X115959700Y-92170445D01*
X115940015Y-92237484D01*
X115923381Y-92258126D01*
X115883504Y-92298002D01*
X115883501Y-92298006D01*
X115795900Y-92429109D01*
X115795895Y-92429119D01*
X115755633Y-92526320D01*
X115711792Y-92580724D01*
X115688526Y-92593428D01*
X115648021Y-92610206D01*
X115648014Y-92610209D01*
X115516911Y-92697810D01*
X115516907Y-92697813D01*
X115405413Y-92809307D01*
X115405410Y-92809311D01*
X115317809Y-92940414D01*
X115317802Y-92940427D01*
X115257464Y-93086098D01*
X115257461Y-93086110D01*
X115226700Y-93240753D01*
X115226700Y-93254858D01*
X115207015Y-93321897D01*
X115190381Y-93342539D01*
X114688139Y-93844781D01*
X114626816Y-93878266D01*
X114600458Y-93881100D01*
X109208300Y-93881100D01*
X109141261Y-93861415D01*
X109095506Y-93808611D01*
X109084300Y-93757100D01*
X109084300Y-93040636D01*
X109084300Y-93040634D01*
X109045081Y-92894265D01*
X108969315Y-92763035D01*
X108862165Y-92655885D01*
X108094168Y-91887888D01*
X108060683Y-91826565D01*
X108065667Y-91756873D01*
X108107538Y-91700940D01*
X108107729Y-91700796D01*
X108107731Y-91700796D01*
X108222946Y-91614546D01*
X108309196Y-91499331D01*
X108359491Y-91364483D01*
X108365900Y-91304873D01*
X108365899Y-90559128D01*
X108359491Y-90499517D01*
X108356116Y-90490469D01*
X108309197Y-90364671D01*
X108309193Y-90364664D01*
X108222947Y-90249455D01*
X108222944Y-90249452D01*
X108107735Y-90163206D01*
X108107728Y-90163202D01*
X107972882Y-90112908D01*
X107972883Y-90112908D01*
X107913283Y-90106501D01*
X107913281Y-90106500D01*
X107913273Y-90106500D01*
X107913265Y-90106500D01*
X107380142Y-90106500D01*
X107313103Y-90086815D01*
X107292461Y-90070181D01*
X107218767Y-89996487D01*
X107218765Y-89996485D01*
X107151705Y-89957768D01*
X107087536Y-89920719D01*
X107005981Y-89898867D01*
X106941166Y-89881500D01*
X103766166Y-89881500D01*
X103614633Y-89881500D01*
X103483092Y-89916746D01*
X103483091Y-89916746D01*
X103468267Y-89920717D01*
X103468266Y-89920718D01*
X103337038Y-89996483D01*
X103337032Y-89996487D01*
X103337027Y-89996493D01*
X103263337Y-90070182D01*
X103202013Y-90103666D01*
X103175656Y-90106500D01*
X102642529Y-90106500D01*
X102642523Y-90106501D01*
X102582916Y-90112908D01*
X102475184Y-90153090D01*
X102457400Y-90154361D01*
X102440697Y-90160592D01*
X102423275Y-90156802D01*
X102405492Y-90158074D01*
X102389844Y-90149529D01*
X102372424Y-90145740D01*
X102344170Y-90124589D01*
X102182615Y-89963034D01*
X102149130Y-89901711D01*
X102154114Y-89832019D01*
X102195986Y-89776086D01*
X102250899Y-89752880D01*
X102389518Y-89730925D01*
X102389523Y-89730924D01*
X102578437Y-89669542D01*
X102755425Y-89579362D01*
X102792715Y-89552268D01*
X102121447Y-88881000D01*
X102144160Y-88881000D01*
X102241061Y-88855036D01*
X102327940Y-88804876D01*
X102398876Y-88733940D01*
X102449036Y-88647061D01*
X102475000Y-88550160D01*
X102475000Y-88527447D01*
X103146268Y-89198715D01*
X103173362Y-89161425D01*
X103263542Y-88984437D01*
X103324924Y-88795523D01*
X103324924Y-88795520D01*
X103356000Y-88599321D01*
X103356000Y-88400678D01*
X103324924Y-88204479D01*
X103324924Y-88204476D01*
X103263542Y-88015562D01*
X103173358Y-87838567D01*
X103146268Y-87801283D01*
X102475000Y-88472551D01*
X102475000Y-88449840D01*
X102449036Y-88352939D01*
X102398876Y-88266060D01*
X102327940Y-88195124D01*
X102241061Y-88144964D01*
X102144160Y-88119000D01*
X102121446Y-88119000D01*
X102792715Y-87447730D01*
X102755432Y-87420641D01*
X102637920Y-87360765D01*
X102587124Y-87312790D01*
X102570329Y-87244969D01*
X102592867Y-87178834D01*
X102637919Y-87139796D01*
X102755694Y-87079787D01*
X102916464Y-86962981D01*
X103056981Y-86822464D01*
X103173787Y-86661694D01*
X103264005Y-86484632D01*
X103313149Y-86333382D01*
X103352586Y-86275707D01*
X103416945Y-86248508D01*
X103431080Y-86247700D01*
X109240000Y-86247700D01*
X109307039Y-86267385D01*
G37*
%TD.AperFunction*%
%TA.AperFunction,Conductor*%
G36*
X120220803Y-91754189D02*
G01*
X120237976Y-91772416D01*
X120241063Y-91776439D01*
X120241064Y-91776441D01*
X120337318Y-91901882D01*
X120367085Y-91924723D01*
X120367384Y-91925132D01*
X120367858Y-91925320D01*
X120387978Y-91953334D01*
X120408288Y-91981148D01*
X120408395Y-91981762D01*
X120408616Y-91982070D01*
X120408686Y-91983434D01*
X120409373Y-91987373D01*
X120415600Y-91993600D01*
X120427144Y-91993600D01*
X120435323Y-91995226D01*
X120440400Y-91994311D01*
X120474592Y-92003037D01*
X120489055Y-92009028D01*
X120543457Y-92052869D01*
X120565521Y-92119163D01*
X120565600Y-92123588D01*
X120565600Y-93323600D01*
X124565600Y-93323600D01*
X124565600Y-93823600D01*
X118465600Y-93823600D01*
X118465600Y-93323600D01*
X120065600Y-93323600D01*
X120065600Y-92203600D01*
X120051919Y-92189919D01*
X120038691Y-92165693D01*
X120022584Y-92143267D01*
X120020835Y-92132993D01*
X120018434Y-92128596D01*
X120018922Y-92121759D01*
X120015600Y-92102238D01*
X120015600Y-91847902D01*
X120035285Y-91780863D01*
X120088089Y-91735108D01*
X120157247Y-91725164D01*
X120220803Y-91754189D01*
G37*
%TD.AperFunction*%
%TA.AperFunction,Conductor*%
G36*
X117870317Y-89435669D02*
G01*
X117927807Y-89469669D01*
X117927810Y-89469669D01*
X117927812Y-89469671D01*
X118081991Y-89514464D01*
X118081994Y-89514464D01*
X118081996Y-89514465D01*
X118118019Y-89517300D01*
X118516380Y-89517299D01*
X118552404Y-89514465D01*
X118618425Y-89495284D01*
X118688291Y-89495483D01*
X118746962Y-89533424D01*
X118757243Y-89547180D01*
X118763302Y-89556580D01*
X118773935Y-89582250D01*
X118861540Y-89713360D01*
X118869464Y-89721284D01*
X118876642Y-89732420D01*
X118882932Y-89753737D01*
X118893583Y-89773242D01*
X118892628Y-89786593D01*
X118896417Y-89799433D01*
X118890184Y-89820766D01*
X118888599Y-89842934D01*
X118880577Y-89853649D01*
X118876823Y-89866499D01*
X118860045Y-89881076D01*
X118846727Y-89898867D01*
X118834185Y-89903544D01*
X118824080Y-89912325D01*
X118802086Y-89915517D01*
X118781263Y-89923284D01*
X118772417Y-89923600D01*
X118565600Y-89923600D01*
X118565600Y-92329600D01*
X118545915Y-92396639D01*
X118493111Y-92442394D01*
X118472272Y-92446927D01*
X118465600Y-92453600D01*
X118465600Y-93173872D01*
X118427540Y-93081986D01*
X118357214Y-93011660D01*
X118265328Y-92973600D01*
X118165872Y-92973600D01*
X118073986Y-93011660D01*
X118003660Y-93081986D01*
X117965600Y-93173872D01*
X117965600Y-92267600D01*
X117985285Y-92200561D01*
X118038089Y-92154806D01*
X118058927Y-92150272D01*
X118065600Y-92143600D01*
X118065600Y-89923600D01*
X117715628Y-89923600D01*
X117715612Y-89923601D01*
X117612902Y-89934094D01*
X117446480Y-89989241D01*
X117446475Y-89989243D01*
X117297254Y-90081284D01*
X117173284Y-90205254D01*
X117081243Y-90354475D01*
X117081239Y-90354485D01*
X117080039Y-90358107D01*
X117078687Y-90360058D01*
X117078518Y-90362428D01*
X117058899Y-90388634D01*
X117040262Y-90415549D01*
X117038068Y-90416460D01*
X117036646Y-90418361D01*
X117005979Y-90429799D01*
X116975744Y-90442367D01*
X116973406Y-90441948D01*
X116971182Y-90442778D01*
X116939200Y-90435820D01*
X116906969Y-90430047D01*
X116904506Y-90428273D01*
X116902909Y-90427926D01*
X116874655Y-90406775D01*
X116826269Y-90358389D01*
X116792784Y-90297066D01*
X116797768Y-90227374D01*
X116815972Y-90194706D01*
X116819926Y-90189606D01*
X116819935Y-90189598D01*
X116847969Y-90142193D01*
X116867013Y-90117642D01*
X117432531Y-89552124D01*
X117493852Y-89518641D01*
X117510481Y-89516189D01*
X117532404Y-89514465D01*
X117686593Y-89469669D01*
X117744082Y-89435669D01*
X117811802Y-89418488D01*
X117870317Y-89435669D01*
G37*
%TD.AperFunction*%
%TA.AperFunction,Conductor*%
G36*
X106257940Y-91052185D02*
G01*
X106303695Y-91104989D01*
X106314901Y-91156500D01*
X106314901Y-91304876D01*
X106321308Y-91364483D01*
X106371602Y-91499328D01*
X106371606Y-91499335D01*
X106457852Y-91614544D01*
X106457855Y-91614547D01*
X106573064Y-91700793D01*
X106573073Y-91700798D01*
X106684232Y-91742257D01*
X106740166Y-91784127D01*
X106764584Y-91849592D01*
X106764900Y-91858439D01*
X106764900Y-92164884D01*
X106745215Y-92231923D01*
X106692411Y-92277678D01*
X106684234Y-92281066D01*
X106598069Y-92313203D01*
X106598064Y-92313206D01*
X106482857Y-92399451D01*
X106482849Y-92399458D01*
X106458632Y-92431810D01*
X106402699Y-92473682D01*
X106359365Y-92481500D01*
X104221435Y-92481500D01*
X104154396Y-92461815D01*
X104122168Y-92431810D01*
X104097950Y-92399458D01*
X104097947Y-92399455D01*
X104097946Y-92399454D01*
X104094186Y-92396639D01*
X103982735Y-92313206D01*
X103982728Y-92313202D01*
X103847882Y-92262908D01*
X103847883Y-92262908D01*
X103788283Y-92256501D01*
X103788281Y-92256500D01*
X103788273Y-92256500D01*
X103788265Y-92256500D01*
X103083300Y-92256500D01*
X103016261Y-92236815D01*
X102970506Y-92184011D01*
X102959300Y-92132500D01*
X102959300Y-92021555D01*
X102959299Y-92021553D01*
X102936253Y-91905690D01*
X102942480Y-91836099D01*
X102985343Y-91780921D01*
X103051233Y-91757677D01*
X103057870Y-91757499D01*
X103788271Y-91757499D01*
X103788272Y-91757499D01*
X103847883Y-91751091D01*
X103982731Y-91700796D01*
X104097946Y-91614546D01*
X104184196Y-91499331D01*
X104234491Y-91364483D01*
X104240900Y-91304873D01*
X104240900Y-91156500D01*
X104260585Y-91089461D01*
X104313389Y-91043706D01*
X104364900Y-91032500D01*
X106190901Y-91032500D01*
X106257940Y-91052185D01*
G37*
%TD.AperFunction*%
%TA.AperFunction,Conductor*%
G36*
X100244000Y-80500000D02*
G01*
X100457500Y-80500000D01*
X100524539Y-80519685D01*
X100570294Y-80572489D01*
X100581500Y-80624000D01*
X100581500Y-89376000D01*
X100561815Y-89443039D01*
X100509011Y-89488794D01*
X100457500Y-89500000D01*
X100244000Y-89500000D01*
X100244000Y-90500000D01*
X99744000Y-90500000D01*
X99744000Y-89500000D01*
X99125948Y-89500000D01*
X98892752Y-89536934D01*
X98668197Y-89609897D01*
X98457828Y-89717085D01*
X98266813Y-89855866D01*
X98096419Y-90026261D01*
X98094915Y-90024757D01*
X98043805Y-90058074D01*
X97973937Y-90058527D01*
X97914915Y-90021134D01*
X97885479Y-89957768D01*
X97884100Y-89939326D01*
X97884100Y-80060673D01*
X97903785Y-79993634D01*
X97956589Y-79947879D01*
X98025747Y-79937935D01*
X98089303Y-79966960D01*
X98096225Y-79973932D01*
X98096419Y-79973739D01*
X98266813Y-80144133D01*
X98457828Y-80282914D01*
X98668197Y-80390102D01*
X98892752Y-80463065D01*
X98892751Y-80463065D01*
X99125948Y-80500000D01*
X99744000Y-80500000D01*
X99744000Y-79500000D01*
X100244000Y-79500000D01*
X100244000Y-80500000D01*
G37*
%TD.AperFunction*%
%TA.AperFunction,Conductor*%
G36*
X125211703Y-84209606D02*
G01*
X125218181Y-84215638D01*
X126204362Y-85201819D01*
X126237847Y-85263142D01*
X126232863Y-85332834D01*
X126190991Y-85388767D01*
X126125527Y-85413184D01*
X126116681Y-85413500D01*
X125474000Y-85413500D01*
X125474000Y-86362000D01*
X126613000Y-86362000D01*
X126613000Y-85909819D01*
X126619238Y-85888573D01*
X126620818Y-85866485D01*
X126628890Y-85855701D01*
X126632685Y-85842780D01*
X126649418Y-85828280D01*
X126662690Y-85810552D01*
X126675310Y-85805844D01*
X126685489Y-85797025D01*
X126707406Y-85793873D01*
X126728154Y-85786135D01*
X126741314Y-85788997D01*
X126754647Y-85787081D01*
X126774790Y-85796280D01*
X126796427Y-85800987D01*
X126814152Y-85814255D01*
X126818203Y-85816106D01*
X126824681Y-85822138D01*
X126935594Y-85933051D01*
X126969079Y-85994374D01*
X126970386Y-86040129D01*
X126951900Y-86156847D01*
X126951900Y-86361551D01*
X126983922Y-86563734D01*
X127047181Y-86758423D01*
X127103936Y-86869809D01*
X127127940Y-86916920D01*
X127140115Y-86940813D01*
X127260428Y-87106413D01*
X127405184Y-87251169D01*
X127409396Y-87254229D01*
X127452063Y-87309559D01*
X127458043Y-87379172D01*
X127425437Y-87440967D01*
X127379845Y-87470730D01*
X127260071Y-87515402D01*
X127260064Y-87515406D01*
X127144855Y-87601652D01*
X127144852Y-87601655D01*
X127058606Y-87716864D01*
X127058602Y-87716871D01*
X127008308Y-87851717D01*
X127001901Y-87911316D01*
X127001900Y-87911335D01*
X127001900Y-87934700D01*
X126982215Y-88001739D01*
X126929411Y-88047494D01*
X126877900Y-88058700D01*
X126513005Y-88058700D01*
X126426042Y-88075998D01*
X126426031Y-88076000D01*
X126422732Y-88076657D01*
X126377671Y-88085620D01*
X126368331Y-88089489D01*
X126360184Y-88092863D01*
X126360182Y-88092864D01*
X126250190Y-88138424D01*
X126250186Y-88138426D01*
X126200197Y-88171828D01*
X126135458Y-88215084D01*
X126135451Y-88215090D01*
X125329781Y-89020761D01*
X125268458Y-89054246D01*
X125198766Y-89049262D01*
X125142833Y-89007390D01*
X125118416Y-88941926D01*
X125118100Y-88933080D01*
X125118100Y-88893317D01*
X125118099Y-88893302D01*
X125115243Y-88857008D01*
X125115242Y-88857002D01*
X125070095Y-88701609D01*
X125070094Y-88701605D01*
X125057689Y-88680630D01*
X125040506Y-88612909D01*
X125057691Y-88554384D01*
X125069632Y-88534194D01*
X125112104Y-88388000D01*
X124805952Y-88388000D01*
X124742833Y-88370732D01*
X124733995Y-88365506D01*
X124733993Y-88365505D01*
X124733989Y-88365503D01*
X124578597Y-88320357D01*
X124578591Y-88320356D01*
X124542297Y-88317500D01*
X124542290Y-88317500D01*
X124431600Y-88317500D01*
X124422914Y-88314949D01*
X124413953Y-88316238D01*
X124389912Y-88305259D01*
X124364561Y-88297815D01*
X124358633Y-88290974D01*
X124350397Y-88287213D01*
X124336107Y-88264978D01*
X124318806Y-88245011D01*
X124316518Y-88234496D01*
X124312623Y-88228435D01*
X124307600Y-88193500D01*
X124307600Y-88012000D01*
X124327285Y-87944961D01*
X124380089Y-87899206D01*
X124431600Y-87888000D01*
X124974000Y-87888000D01*
X124974000Y-87810500D01*
X125474000Y-87810500D01*
X126160828Y-87810500D01*
X126160844Y-87810499D01*
X126220372Y-87804098D01*
X126220379Y-87804096D01*
X126355086Y-87753854D01*
X126355093Y-87753850D01*
X126470187Y-87667690D01*
X126470190Y-87667687D01*
X126556350Y-87552593D01*
X126556354Y-87552586D01*
X126606596Y-87417879D01*
X126606598Y-87417872D01*
X126612999Y-87358344D01*
X126613000Y-87358327D01*
X126613000Y-86862000D01*
X125474000Y-86862000D01*
X125474000Y-87810500D01*
X124974000Y-87810500D01*
X124974000Y-86862000D01*
X123835000Y-86862000D01*
X123835000Y-87361649D01*
X123833565Y-87361649D01*
X123818764Y-87424087D01*
X123774178Y-87469381D01*
X123742219Y-87488282D01*
X123742219Y-87488283D01*
X123627885Y-87602616D01*
X123627878Y-87602625D01*
X123545567Y-87741806D01*
X123545565Y-87741810D01*
X123542475Y-87752447D01*
X123539920Y-87756446D01*
X123539582Y-87761182D01*
X123521290Y-87785616D01*
X123504866Y-87811332D01*
X123500554Y-87813315D01*
X123497710Y-87817115D01*
X123469121Y-87827777D01*
X123441393Y-87840536D01*
X123436692Y-87839873D01*
X123432246Y-87841532D01*
X123402428Y-87835045D01*
X123372207Y-87830787D01*
X123367328Y-87827409D01*
X123363973Y-87826680D01*
X123335719Y-87805529D01*
X123276528Y-87746338D01*
X123276525Y-87746334D01*
X123276525Y-87746335D01*
X123269458Y-87739268D01*
X123269458Y-87739267D01*
X123182333Y-87652142D01*
X123123027Y-87612515D01*
X123122937Y-87612455D01*
X123116159Y-87607925D01*
X123111654Y-87604915D01*
X123111653Y-87604914D01*
X123111650Y-87604912D01*
X123111641Y-87604901D01*
X123073815Y-87564934D01*
X123071135Y-87560402D01*
X123071132Y-87560399D01*
X123071130Y-87560396D01*
X122957603Y-87446869D01*
X122957595Y-87446863D01*
X122819393Y-87365131D01*
X122819388Y-87365129D01*
X122665208Y-87320335D01*
X122665202Y-87320334D01*
X122629188Y-87317500D01*
X122628273Y-87317500D01*
X122628134Y-87317459D01*
X122626753Y-87317405D01*
X122626756Y-87317309D01*
X122626754Y-87317309D01*
X122626759Y-87317238D01*
X122626766Y-87317057D01*
X122561234Y-87297815D01*
X122515479Y-87245011D01*
X122505535Y-87175853D01*
X122534560Y-87112297D01*
X122540578Y-87105832D01*
X122598387Y-87048024D01*
X122685992Y-86916914D01*
X122746335Y-86771232D01*
X122777098Y-86616577D01*
X122777098Y-86458893D01*
X122777098Y-86458890D01*
X122777097Y-86458888D01*
X122761740Y-86381685D01*
X122746335Y-86304238D01*
X122723251Y-86248508D01*
X122685995Y-86158562D01*
X122685988Y-86158549D01*
X122598387Y-86027446D01*
X122598384Y-86027442D01*
X122516260Y-85945318D01*
X122482775Y-85883995D01*
X122484087Y-85865655D01*
X123835000Y-85865655D01*
X123835000Y-86362000D01*
X124974000Y-86362000D01*
X124974000Y-85413500D01*
X124287155Y-85413500D01*
X124227627Y-85419901D01*
X124227620Y-85419903D01*
X124092913Y-85470145D01*
X124092906Y-85470149D01*
X123977812Y-85556309D01*
X123977809Y-85556312D01*
X123891649Y-85671406D01*
X123891645Y-85671413D01*
X123841403Y-85806120D01*
X123841401Y-85806127D01*
X123835000Y-85865655D01*
X122484087Y-85865655D01*
X122487759Y-85814303D01*
X122500833Y-85788755D01*
X122578594Y-85672379D01*
X122638937Y-85526697D01*
X122669700Y-85372042D01*
X122669700Y-85214358D01*
X122669700Y-85214355D01*
X122662208Y-85176692D01*
X122668435Y-85107100D01*
X122711298Y-85051923D01*
X122777187Y-85028678D01*
X122783825Y-85028500D01*
X123780684Y-85028500D01*
X123828136Y-85037939D01*
X123880680Y-85059703D01*
X123972503Y-85097737D01*
X124127153Y-85128499D01*
X124127156Y-85128500D01*
X124127158Y-85128500D01*
X124284844Y-85128500D01*
X124284845Y-85128499D01*
X124439497Y-85097737D01*
X124585179Y-85037394D01*
X124716289Y-84949789D01*
X124827789Y-84838289D01*
X124915394Y-84707179D01*
X124975737Y-84561497D01*
X125006500Y-84406842D01*
X125006500Y-84303319D01*
X125026185Y-84236280D01*
X125078989Y-84190525D01*
X125148147Y-84180581D01*
X125211703Y-84209606D01*
G37*
%TD.AperFunction*%
%TA.AperFunction,Conductor*%
G36*
X129709093Y-81777659D02*
G01*
X129760144Y-81808444D01*
X130736781Y-82785081D01*
X130770266Y-82846404D01*
X130773100Y-82872762D01*
X130773100Y-87154838D01*
X130753415Y-87221877D01*
X130736781Y-87242519D01*
X130156919Y-87822381D01*
X130095596Y-87855866D01*
X130069238Y-87858700D01*
X129585191Y-87858700D01*
X129518152Y-87839015D01*
X129472397Y-87786211D01*
X129469009Y-87778033D01*
X129446197Y-87716871D01*
X129446193Y-87716864D01*
X129359947Y-87601655D01*
X129359944Y-87601652D01*
X129244735Y-87515406D01*
X129244728Y-87515402D01*
X129124954Y-87470730D01*
X129069020Y-87428859D01*
X129044603Y-87363395D01*
X129059454Y-87295122D01*
X129095409Y-87254225D01*
X129099615Y-87251169D01*
X129099615Y-87251168D01*
X129099619Y-87251166D01*
X129244366Y-87106419D01*
X129244368Y-87106415D01*
X129244371Y-87106413D01*
X129313079Y-87011843D01*
X129364687Y-86940810D01*
X129457620Y-86758419D01*
X129520877Y-86563734D01*
X129552900Y-86361552D01*
X129552900Y-86156848D01*
X129533524Y-86034517D01*
X129520877Y-85954665D01*
X129475255Y-85814255D01*
X129457620Y-85759981D01*
X129457618Y-85759978D01*
X129457618Y-85759976D01*
X129397251Y-85641501D01*
X129364687Y-85577590D01*
X129349226Y-85556309D01*
X129244371Y-85411986D01*
X129179266Y-85346881D01*
X129145781Y-85285558D01*
X129150765Y-85215866D01*
X129179266Y-85171519D01*
X129180638Y-85170147D01*
X129244366Y-85106419D01*
X129244368Y-85106415D01*
X129244371Y-85106413D01*
X129358163Y-84949789D01*
X129364687Y-84940810D01*
X129457620Y-84758419D01*
X129520877Y-84563734D01*
X129552900Y-84361552D01*
X129552900Y-84156848D01*
X129520877Y-83954666D01*
X129457620Y-83759981D01*
X129457618Y-83759978D01*
X129457618Y-83759976D01*
X129387866Y-83623082D01*
X129364687Y-83577590D01*
X129328295Y-83527500D01*
X129244371Y-83411986D01*
X129099613Y-83267228D01*
X128934011Y-83146913D01*
X128880021Y-83119403D01*
X128829225Y-83071428D01*
X128812431Y-83003607D01*
X128834969Y-82937472D01*
X128880024Y-82898433D01*
X128933749Y-82871059D01*
X128978321Y-82838674D01*
X128361397Y-82221750D01*
X128435743Y-82201830D01*
X128544057Y-82139295D01*
X128632495Y-82050857D01*
X128695030Y-81942543D01*
X128714950Y-81868197D01*
X129331874Y-82485121D01*
X129364259Y-82440549D01*
X129457155Y-82258231D01*
X129520390Y-82063617D01*
X129520390Y-82063616D01*
X129549990Y-81876728D01*
X129579919Y-81813593D01*
X129639230Y-81776661D01*
X129709093Y-81777659D01*
G37*
%TD.AperFunction*%
%TA.AperFunction,Conductor*%
G36*
X126879000Y-81322166D02*
G01*
X126897693Y-81322434D01*
X126911829Y-81331806D01*
X126928102Y-81336585D01*
X126940343Y-81350712D01*
X126955926Y-81361044D01*
X126962751Y-81376572D01*
X126973857Y-81389389D01*
X126976517Y-81407892D01*
X126984040Y-81425007D01*
X126983582Y-81457028D01*
X126983801Y-81458547D01*
X126983536Y-81460298D01*
X126952400Y-81656882D01*
X126952400Y-81861517D01*
X126984409Y-82063617D01*
X127047644Y-82258231D01*
X127140541Y-82440550D01*
X127140547Y-82440559D01*
X127172923Y-82485121D01*
X127172924Y-82485122D01*
X127789849Y-81868196D01*
X127809770Y-81942543D01*
X127872305Y-82050857D01*
X127960743Y-82139295D01*
X128069057Y-82201830D01*
X128143402Y-82221750D01*
X127526476Y-82838674D01*
X127571052Y-82871061D01*
X127624776Y-82898434D01*
X127675572Y-82946408D01*
X127692368Y-83014228D01*
X127669831Y-83080364D01*
X127624779Y-83119403D01*
X127570786Y-83146914D01*
X127405186Y-83267228D01*
X127260428Y-83411986D01*
X127140115Y-83577586D01*
X127047180Y-83759979D01*
X127035317Y-83796489D01*
X126995878Y-83854164D01*
X126931519Y-83881360D01*
X126862673Y-83869444D01*
X126829706Y-83845849D01*
X125236418Y-82252560D01*
X125236417Y-82252559D01*
X125121679Y-82175894D01*
X124994204Y-82123093D01*
X124994194Y-82123090D01*
X124858868Y-82096172D01*
X124858866Y-82096172D01*
X124858865Y-82096172D01*
X124025967Y-82096172D01*
X123958928Y-82076487D01*
X123913173Y-82023683D01*
X123903229Y-81954525D01*
X123922865Y-81903282D01*
X123950187Y-81862390D01*
X123950188Y-81862386D01*
X123950194Y-81862379D01*
X124010537Y-81716697D01*
X124041300Y-81562042D01*
X124041300Y-81440900D01*
X124060985Y-81373861D01*
X124113789Y-81328106D01*
X124165300Y-81316900D01*
X126861063Y-81316900D01*
X126879000Y-81322166D01*
G37*
%TD.AperFunction*%
%TA.AperFunction,Conductor*%
G36*
X117451791Y-82568585D02*
G01*
X117472433Y-82585219D01*
X118224128Y-83336915D01*
X118224131Y-83336917D01*
X118228000Y-83340786D01*
X118308723Y-83394723D01*
X118309264Y-83395085D01*
X118309316Y-83395120D01*
X118317217Y-83400399D01*
X118362021Y-83454011D01*
X118370728Y-83523337D01*
X118340573Y-83586364D01*
X118281129Y-83623082D01*
X118248325Y-83627500D01*
X112738500Y-83627500D01*
X112671461Y-83607815D01*
X112625706Y-83555011D01*
X112614500Y-83503500D01*
X112614500Y-83028165D01*
X112619828Y-83010019D01*
X112620166Y-82991110D01*
X112633664Y-82962897D01*
X112634185Y-82961126D01*
X112635399Y-82959273D01*
X112642659Y-82948408D01*
X112696272Y-82903603D01*
X112745760Y-82893300D01*
X112753244Y-82893300D01*
X112753245Y-82893299D01*
X112907897Y-82862537D01*
X113053579Y-82802194D01*
X113184689Y-82714589D01*
X113296189Y-82603089D01*
X113296191Y-82603085D01*
X113300053Y-82598381D01*
X113301189Y-82599313D01*
X113349195Y-82559201D01*
X113398677Y-82548900D01*
X117384752Y-82548900D01*
X117451791Y-82568585D01*
G37*
%TD.AperFunction*%
%TA.AperFunction,Conductor*%
G36*
X108192039Y-82420185D02*
G01*
X108237794Y-82472989D01*
X108249000Y-82524500D01*
X108249000Y-82554000D01*
X109350000Y-82554000D01*
X109358685Y-82556550D01*
X109367647Y-82555262D01*
X109391687Y-82566240D01*
X109417039Y-82573685D01*
X109422966Y-82580525D01*
X109431203Y-82584287D01*
X109445492Y-82606521D01*
X109462794Y-82626489D01*
X109465081Y-82637003D01*
X109468977Y-82643065D01*
X109474000Y-82678000D01*
X109474000Y-82779500D01*
X109454315Y-82846539D01*
X109401511Y-82892294D01*
X109350000Y-82903500D01*
X103206789Y-82903500D01*
X103139750Y-82883815D01*
X103093995Y-82831011D01*
X103084051Y-82761853D01*
X103113076Y-82698297D01*
X103132475Y-82680235D01*
X103213546Y-82619546D01*
X103299796Y-82504331D01*
X103301486Y-82499797D01*
X103308436Y-82481167D01*
X103350307Y-82425233D01*
X103415771Y-82400816D01*
X103424618Y-82400500D01*
X108125000Y-82400500D01*
X108192039Y-82420185D01*
G37*
%TD.AperFunction*%
%TA.AperFunction,Conductor*%
G36*
X117312586Y-78803228D02*
G01*
X117338785Y-78807015D01*
X117345588Y-78812918D01*
X117354229Y-78815456D01*
X117371560Y-78835458D01*
X117391555Y-78852809D01*
X117397058Y-78864883D01*
X117399984Y-78868260D01*
X117403355Y-78878698D01*
X117406193Y-78884925D01*
X117407736Y-78890196D01*
X117415409Y-78928768D01*
X117427767Y-78958604D01*
X117429649Y-78965029D01*
X117434646Y-78999875D01*
X117434646Y-79714265D01*
X117437917Y-79730710D01*
X117440300Y-79754901D01*
X117440300Y-81023900D01*
X117420615Y-81090939D01*
X117367811Y-81136694D01*
X117316300Y-81147900D01*
X111696475Y-81147900D01*
X111561148Y-81174818D01*
X111561138Y-81174821D01*
X111433663Y-81227622D01*
X111318925Y-81304287D01*
X111318924Y-81304288D01*
X110627118Y-81996095D01*
X110565795Y-82029580D01*
X110496103Y-82024596D01*
X110451756Y-81996095D01*
X110417345Y-81961684D01*
X110268124Y-81869643D01*
X110268119Y-81869641D01*
X110101697Y-81814494D01*
X110101690Y-81814493D01*
X109998986Y-81804000D01*
X109758069Y-81804000D01*
X109691030Y-81784315D01*
X109645275Y-81731511D01*
X109635331Y-81662353D01*
X109664356Y-81598797D01*
X109670377Y-81592330D01*
X111889629Y-79373077D01*
X111950950Y-79339594D01*
X112020642Y-79344578D01*
X112076575Y-79386450D01*
X112098925Y-79436567D01*
X112107861Y-79481492D01*
X112107864Y-79481501D01*
X112168202Y-79627172D01*
X112168209Y-79627185D01*
X112255810Y-79758288D01*
X112255813Y-79758292D01*
X112294780Y-79797258D01*
X112328266Y-79858581D01*
X112331100Y-79884940D01*
X112331100Y-79987246D01*
X112361861Y-80141889D01*
X112361864Y-80141901D01*
X112422202Y-80287572D01*
X112422209Y-80287585D01*
X112509810Y-80418688D01*
X112509813Y-80418692D01*
X112621307Y-80530186D01*
X112621311Y-80530189D01*
X112752414Y-80617790D01*
X112752427Y-80617797D01*
X112859405Y-80662108D01*
X112898103Y-80678137D01*
X113052753Y-80708899D01*
X113052756Y-80708900D01*
X113052758Y-80708900D01*
X113210444Y-80708900D01*
X113210445Y-80708899D01*
X113365097Y-80678137D01*
X113510779Y-80617794D01*
X113641889Y-80530189D01*
X113753389Y-80418689D01*
X113840994Y-80287579D01*
X113901337Y-80141897D01*
X113932100Y-79987242D01*
X113932100Y-79829558D01*
X113932100Y-79829555D01*
X113932099Y-79829553D01*
X113925149Y-79794613D01*
X113901337Y-79674903D01*
X113881569Y-79627179D01*
X113840997Y-79529227D01*
X113840990Y-79529214D01*
X113753389Y-79398111D01*
X113753386Y-79398107D01*
X113714419Y-79359140D01*
X113680934Y-79297817D01*
X113678100Y-79271459D01*
X113678100Y-79169155D01*
X113678099Y-79169153D01*
X113667995Y-79118358D01*
X113647337Y-79014503D01*
X113627752Y-78967222D01*
X113620284Y-78897755D01*
X113651559Y-78835275D01*
X113711648Y-78799623D01*
X113742314Y-78795771D01*
X117287190Y-78795771D01*
X117312586Y-78803228D01*
G37*
%TD.AperFunction*%
%TA.AperFunction,Conductor*%
G36*
X109317076Y-75551785D02*
G01*
X109362831Y-75604589D01*
X109372775Y-75673747D01*
X109366219Y-75699433D01*
X109365403Y-75701620D01*
X109365401Y-75701627D01*
X109359000Y-75761155D01*
X109359000Y-76702000D01*
X111629000Y-76702000D01*
X111629000Y-75761172D01*
X111628999Y-75761155D01*
X111622598Y-75701627D01*
X111622596Y-75701620D01*
X111621781Y-75699433D01*
X111621651Y-75697617D01*
X111620813Y-75694070D01*
X111621387Y-75693934D01*
X111616797Y-75629742D01*
X111650282Y-75568419D01*
X111711605Y-75534934D01*
X111737963Y-75532100D01*
X112625796Y-75532100D01*
X112692835Y-75551785D01*
X112738590Y-75604589D01*
X112748534Y-75673747D01*
X112719509Y-75737303D01*
X112694686Y-75759203D01*
X112686215Y-75764862D01*
X112546863Y-75904214D01*
X112546860Y-75904218D01*
X112437371Y-76068079D01*
X112437364Y-76068092D01*
X112361950Y-76250160D01*
X112361947Y-76250170D01*
X112323500Y-76443456D01*
X112323500Y-76443459D01*
X112323500Y-76640541D01*
X112323500Y-76640543D01*
X112323499Y-76640543D01*
X112361947Y-76833828D01*
X112362233Y-76834770D01*
X112362237Y-76835287D01*
X112363137Y-76839809D01*
X112362279Y-76839979D01*
X112362860Y-76904637D01*
X112325614Y-76963752D01*
X112262321Y-76993346D01*
X112243574Y-76994771D01*
X112005241Y-76994771D01*
X111831276Y-77029374D01*
X111831260Y-77029379D01*
X111715390Y-77077373D01*
X111715391Y-77077374D01*
X111667391Y-77097257D01*
X111543885Y-77179782D01*
X111543873Y-77179790D01*
X111541897Y-77181110D01*
X111475217Y-77201980D01*
X111473018Y-77202000D01*
X109359000Y-77202000D01*
X109359000Y-78142844D01*
X109365401Y-78202372D01*
X109365403Y-78202379D01*
X109415645Y-78337086D01*
X109415649Y-78337093D01*
X109501809Y-78452187D01*
X109501812Y-78452190D01*
X109616906Y-78538350D01*
X109616913Y-78538354D01*
X109751620Y-78588596D01*
X109751627Y-78588598D01*
X109811155Y-78594999D01*
X109811172Y-78595000D01*
X109821346Y-78595000D01*
X109888385Y-78614685D01*
X109934140Y-78667489D01*
X109944084Y-78736647D01*
X109915059Y-78800203D01*
X109909029Y-78806678D01*
X109364460Y-79351247D01*
X108829174Y-79886533D01*
X108767851Y-79920018D01*
X108698159Y-79915034D01*
X108653812Y-79886533D01*
X108561892Y-79794613D01*
X108561888Y-79794610D01*
X108430785Y-79707009D01*
X108430772Y-79707002D01*
X108285101Y-79646664D01*
X108285089Y-79646661D01*
X108130445Y-79615900D01*
X108130442Y-79615900D01*
X107972758Y-79615900D01*
X107972755Y-79615900D01*
X107818110Y-79646661D01*
X107818098Y-79646664D01*
X107672427Y-79707002D01*
X107672414Y-79707009D01*
X107541311Y-79794610D01*
X107541307Y-79794613D01*
X107531340Y-79804581D01*
X107504412Y-79819284D01*
X107478594Y-79835877D01*
X107472393Y-79836768D01*
X107470017Y-79838066D01*
X107443659Y-79840900D01*
X107393835Y-79840900D01*
X107326796Y-79821215D01*
X107281041Y-79768411D01*
X107271097Y-79699253D01*
X107290733Y-79648009D01*
X107338590Y-79576385D01*
X107338590Y-79576384D01*
X107338594Y-79576379D01*
X107398937Y-79430697D01*
X107429700Y-79276042D01*
X107429700Y-79118358D01*
X107429700Y-79118355D01*
X107429699Y-79118353D01*
X107409042Y-79014503D01*
X107398937Y-78963703D01*
X107371621Y-78897755D01*
X107338597Y-78818027D01*
X107338590Y-78818014D01*
X107250989Y-78686911D01*
X107250986Y-78686907D01*
X107139492Y-78575413D01*
X107139488Y-78575410D01*
X107008385Y-78487809D01*
X107008372Y-78487802D01*
X106862701Y-78427464D01*
X106862689Y-78427461D01*
X106708045Y-78396700D01*
X106708042Y-78396700D01*
X106550358Y-78396700D01*
X106550355Y-78396700D01*
X106395710Y-78427461D01*
X106395698Y-78427464D01*
X106250027Y-78487802D01*
X106250014Y-78487809D01*
X106118911Y-78575410D01*
X106118907Y-78575413D01*
X106007413Y-78686907D01*
X106007410Y-78686911D01*
X105919809Y-78818014D01*
X105919802Y-78818027D01*
X105859464Y-78963698D01*
X105859461Y-78963710D01*
X105828700Y-79118353D01*
X105828700Y-79276046D01*
X105859461Y-79430689D01*
X105859464Y-79430701D01*
X105919802Y-79576372D01*
X105919809Y-79576385D01*
X105967667Y-79648009D01*
X105988545Y-79714687D01*
X105970060Y-79782067D01*
X105918082Y-79828757D01*
X105864565Y-79840900D01*
X102201379Y-79840900D01*
X102134340Y-79821215D01*
X102088585Y-79768411D01*
X102078641Y-79699253D01*
X102090894Y-79660605D01*
X102134102Y-79575802D01*
X102207065Y-79351247D01*
X102223102Y-79250000D01*
X101177012Y-79250000D01*
X101209925Y-79192993D01*
X101244000Y-79065826D01*
X101244000Y-78934174D01*
X101209925Y-78807007D01*
X101177012Y-78750000D01*
X102223102Y-78750000D01*
X102207065Y-78648752D01*
X102134102Y-78424197D01*
X102026914Y-78213828D01*
X101888133Y-78022813D01*
X101721186Y-77855866D01*
X101530171Y-77717085D01*
X101319802Y-77609897D01*
X101095247Y-77536934D01*
X101095248Y-77536934D01*
X100862052Y-77500000D01*
X100244000Y-77500000D01*
X100244000Y-78500000D01*
X99744000Y-78500000D01*
X99744000Y-77500000D01*
X99125948Y-77500000D01*
X98892752Y-77536934D01*
X98668197Y-77609897D01*
X98457828Y-77717085D01*
X98266813Y-77855866D01*
X98096419Y-78026261D01*
X98094915Y-78024757D01*
X98043805Y-78058074D01*
X97973937Y-78058527D01*
X97914915Y-78021134D01*
X97885479Y-77957768D01*
X97884100Y-77939326D01*
X97884100Y-75656100D01*
X97903785Y-75589061D01*
X97956589Y-75543306D01*
X98008100Y-75532100D01*
X109250037Y-75532100D01*
X109317076Y-75551785D01*
G37*
%TD.AperFunction*%
%TD*%
M02*
