M48
; DRILL file {KiCad 9.0.8-9.0.8~ubuntu24.04.1} date 2026-05-08T00:12:30+0200
; FORMAT={-:-/ absolute / inch / decimal}
; #@! TF.CreationDate,2026-05-08T00:12:30+02:00
; #@! TF.GenerationSoftware,Kicad,Pcbnew,9.0.8-9.0.8~ubuntu24.04.1
; #@! TF.FileFunction,Plated,1,4,PTH
FMAT,2
INCH
; #@! TA.AperFunction,Plated,PTH,ViaDrill
T1C0.0118
; #@! TA.AperFunction,Plated,PTH,ComponentDrill
T2C0.0197
; #@! TA.AperFunction,Plated,PTH,ComponentDrill
T3C0.0300
; #@! TA.AperFunction,Plated,PTH,ComponentDrill
T4C0.0374
; #@! TA.AperFunction,Plated,PTH,ComponentDrill
T5C0.0394
; #@! TA.AperFunction,Plated,PTH,ComponentDrill
T6C0.0906
%
G90
G05
T1
X3.886Y-3.018
X3.906Y-3.682
X4.022Y-3.626
X4.106Y-3.118
X4.154Y-3.486
X4.156Y-3.58
X4.198Y-3.118
X4.24Y-3.334
X4.254Y-3.166
X4.262Y-3.448
X4.292Y-3.092
X4.3012Y-3.5292
X4.3012Y-3.6612
X4.31Y-3.22
X4.31Y-3.41
X4.3472Y-3.6992
X4.36Y-3.312
X4.373Y-3.3704
X4.3803Y-3.4972
X4.39Y-3.174
X4.4008Y-3.3761
X4.41Y-3.246
X4.436Y-3.232
X4.444Y-3.12
X4.4441Y-3.3743
X4.4533Y-3.6941
X4.454Y-3.146
X4.4692Y-3.4952
X4.52Y-3.116
X4.528Y-3.53
X4.5331Y-3.286
X4.5331Y-3.364
X4.536Y-3.662
X4.538Y-3.4789
X4.568Y-3.674
X4.572Y-3.384
X4.586Y-3.7
X4.5868Y-3.6539
X4.61Y-3.632
X4.653Y-3.0982
X4.6532Y-3.2073
X4.7004Y-3.284
X4.7041Y-3.5119
X4.73Y-3.526
X4.7477Y-3.0911
X4.7536Y-3.0695
X4.77Y-3.5155
X4.798Y-3.358
X4.802Y-3.516
X4.8022Y-3.407
X4.826Y-3.122
X4.8345Y-3.5095
X4.842Y-3.356
X4.852Y-3.208
X4.854Y-3.49
X4.86Y-3.458
X4.878Y-3.284
X4.89Y-3.32
X4.956Y-3.226
X5.006Y-3.68
X5.048Y-3.03
X5.122Y-3.282
X5.128Y-3.406
X5.306Y-3.332
X5.308Y-3.036
X5.312Y-3.678
T3
X4.0194Y-3.2087
X4.0194Y-3.3071
X4.0194Y-3.3858
X4.0194Y-3.4843
T4
X5.0493Y-3.2189
X5.0493Y-3.3173
X5.0493Y-3.396
X5.0493Y-3.4945
T5
X4.4616Y-3.0135
X4.7765Y-3.0139
T6
X5.156Y-3.098
X5.156Y-3.6153
T2
G00X4.6542Y-3.6978
M15
G01X4.6542Y-3.6702
M16
G05
G00X4.914Y-3.6978
M15
G01X4.914Y-3.6702
M16
G05
T5
G00X3.9663Y-3.1102
M15
G01X3.9072Y-3.1102
M16
G05
G00X3.9663Y-3.5827
M15
G01X3.9072Y-3.5827
M16
G05
M30
