%TF.GenerationSoftware,KiCad,Pcbnew,7.0.11+dfsg-1build4*%
%TF.CreationDate,2026-04-30T10:00:48+02:00*%
%TF.ProjectId,daughterboard_pico2,64617567-6874-4657-9262-6f6172645f70,rev?*%
%TF.SameCoordinates,Original*%
%TF.FileFunction,Legend,Top*%
%TF.FilePolarity,Positive*%
%FSLAX46Y46*%
G04 Gerber Fmt 4.6, Leading zero omitted, Abs format (unit mm)*
G04 Created by KiCad (PCBNEW 7.0.11+dfsg-1build4) date 2026-04-30 10:00:48*
%MOMM*%
%LPD*%
G01*
G04 APERTURE LIST*
%ADD10C,0.100000*%
%ADD11C,0.150000*%
%ADD12C,0.120000*%
G04 APERTURE END LIST*
D10*
X70233265Y-46347800D02*
X70376122Y-46395419D01*
X70376122Y-46395419D02*
X70614217Y-46395419D01*
X70614217Y-46395419D02*
X70709455Y-46347800D01*
X70709455Y-46347800D02*
X70757074Y-46300180D01*
X70757074Y-46300180D02*
X70804693Y-46204942D01*
X70804693Y-46204942D02*
X70804693Y-46109704D01*
X70804693Y-46109704D02*
X70757074Y-46014466D01*
X70757074Y-46014466D02*
X70709455Y-45966847D01*
X70709455Y-45966847D02*
X70614217Y-45919228D01*
X70614217Y-45919228D02*
X70423741Y-45871609D01*
X70423741Y-45871609D02*
X70328503Y-45823990D01*
X70328503Y-45823990D02*
X70280884Y-45776371D01*
X70280884Y-45776371D02*
X70233265Y-45681133D01*
X70233265Y-45681133D02*
X70233265Y-45585895D01*
X70233265Y-45585895D02*
X70280884Y-45490657D01*
X70280884Y-45490657D02*
X70328503Y-45443038D01*
X70328503Y-45443038D02*
X70423741Y-45395419D01*
X70423741Y-45395419D02*
X70661836Y-45395419D01*
X70661836Y-45395419D02*
X70804693Y-45443038D01*
X71661836Y-45728752D02*
X71661836Y-46395419D01*
X71233265Y-45728752D02*
X71233265Y-46252561D01*
X71233265Y-46252561D02*
X71280884Y-46347800D01*
X71280884Y-46347800D02*
X71376122Y-46395419D01*
X71376122Y-46395419D02*
X71518979Y-46395419D01*
X71518979Y-46395419D02*
X71614217Y-46347800D01*
X71614217Y-46347800D02*
X71661836Y-46300180D01*
X72566598Y-46347800D02*
X72471360Y-46395419D01*
X72471360Y-46395419D02*
X72280884Y-46395419D01*
X72280884Y-46395419D02*
X72185646Y-46347800D01*
X72185646Y-46347800D02*
X72138027Y-46300180D01*
X72138027Y-46300180D02*
X72090408Y-46204942D01*
X72090408Y-46204942D02*
X72090408Y-45919228D01*
X72090408Y-45919228D02*
X72138027Y-45823990D01*
X72138027Y-45823990D02*
X72185646Y-45776371D01*
X72185646Y-45776371D02*
X72280884Y-45728752D01*
X72280884Y-45728752D02*
X72471360Y-45728752D01*
X72471360Y-45728752D02*
X72566598Y-45776371D01*
X72995170Y-46395419D02*
X72995170Y-45395419D01*
X73423741Y-46395419D02*
X73423741Y-45871609D01*
X73423741Y-45871609D02*
X73376122Y-45776371D01*
X73376122Y-45776371D02*
X73280884Y-45728752D01*
X73280884Y-45728752D02*
X73138027Y-45728752D01*
X73138027Y-45728752D02*
X73042789Y-45776371D01*
X73042789Y-45776371D02*
X72995170Y-45823990D01*
X73899932Y-46395419D02*
X73899932Y-45395419D01*
X73899932Y-45395419D02*
X74138027Y-45395419D01*
X74138027Y-45395419D02*
X74280884Y-45443038D01*
X74280884Y-45443038D02*
X74376122Y-45538276D01*
X74376122Y-45538276D02*
X74423741Y-45633514D01*
X74423741Y-45633514D02*
X74471360Y-45823990D01*
X74471360Y-45823990D02*
X74471360Y-45966847D01*
X74471360Y-45966847D02*
X74423741Y-46157323D01*
X74423741Y-46157323D02*
X74376122Y-46252561D01*
X74376122Y-46252561D02*
X74280884Y-46347800D01*
X74280884Y-46347800D02*
X74138027Y-46395419D01*
X74138027Y-46395419D02*
X73899932Y-46395419D01*
X74852313Y-46347800D02*
X74995170Y-46395419D01*
X74995170Y-46395419D02*
X75233265Y-46395419D01*
X75233265Y-46395419D02*
X75328503Y-46347800D01*
X75328503Y-46347800D02*
X75376122Y-46300180D01*
X75376122Y-46300180D02*
X75423741Y-46204942D01*
X75423741Y-46204942D02*
X75423741Y-46109704D01*
X75423741Y-46109704D02*
X75376122Y-46014466D01*
X75376122Y-46014466D02*
X75328503Y-45966847D01*
X75328503Y-45966847D02*
X75233265Y-45919228D01*
X75233265Y-45919228D02*
X75042789Y-45871609D01*
X75042789Y-45871609D02*
X74947551Y-45823990D01*
X74947551Y-45823990D02*
X74899932Y-45776371D01*
X74899932Y-45776371D02*
X74852313Y-45681133D01*
X74852313Y-45681133D02*
X74852313Y-45585895D01*
X74852313Y-45585895D02*
X74899932Y-45490657D01*
X74899932Y-45490657D02*
X74947551Y-45443038D01*
X74947551Y-45443038D02*
X75042789Y-45395419D01*
X75042789Y-45395419D02*
X75280884Y-45395419D01*
X75280884Y-45395419D02*
X75423741Y-45443038D01*
X75852313Y-46395419D02*
X75852313Y-45395419D01*
X75852313Y-45395419D02*
X76233265Y-45395419D01*
X76233265Y-45395419D02*
X76328503Y-45443038D01*
X76328503Y-45443038D02*
X76376122Y-45490657D01*
X76376122Y-45490657D02*
X76423741Y-45585895D01*
X76423741Y-45585895D02*
X76423741Y-45728752D01*
X76423741Y-45728752D02*
X76376122Y-45823990D01*
X76376122Y-45823990D02*
X76328503Y-45871609D01*
X76328503Y-45871609D02*
X76233265Y-45919228D01*
X76233265Y-45919228D02*
X75852313Y-45919228D01*
X76852313Y-46300180D02*
X76899932Y-46347800D01*
X76899932Y-46347800D02*
X76852313Y-46395419D01*
X76852313Y-46395419D02*
X76804694Y-46347800D01*
X76804694Y-46347800D02*
X76852313Y-46300180D01*
X76852313Y-46300180D02*
X76852313Y-46395419D01*
X77757074Y-46347800D02*
X77661836Y-46395419D01*
X77661836Y-46395419D02*
X77471360Y-46395419D01*
X77471360Y-46395419D02*
X77376122Y-46347800D01*
X77376122Y-46347800D02*
X77328503Y-46300180D01*
X77328503Y-46300180D02*
X77280884Y-46204942D01*
X77280884Y-46204942D02*
X77280884Y-45919228D01*
X77280884Y-45919228D02*
X77328503Y-45823990D01*
X77328503Y-45823990D02*
X77376122Y-45776371D01*
X77376122Y-45776371D02*
X77471360Y-45728752D01*
X77471360Y-45728752D02*
X77661836Y-45728752D01*
X77661836Y-45728752D02*
X77757074Y-45776371D01*
X78328503Y-46395419D02*
X78233265Y-46347800D01*
X78233265Y-46347800D02*
X78185646Y-46300180D01*
X78185646Y-46300180D02*
X78138027Y-46204942D01*
X78138027Y-46204942D02*
X78138027Y-45919228D01*
X78138027Y-45919228D02*
X78185646Y-45823990D01*
X78185646Y-45823990D02*
X78233265Y-45776371D01*
X78233265Y-45776371D02*
X78328503Y-45728752D01*
X78328503Y-45728752D02*
X78471360Y-45728752D01*
X78471360Y-45728752D02*
X78566598Y-45776371D01*
X78566598Y-45776371D02*
X78614217Y-45823990D01*
X78614217Y-45823990D02*
X78661836Y-45919228D01*
X78661836Y-45919228D02*
X78661836Y-46204942D01*
X78661836Y-46204942D02*
X78614217Y-46300180D01*
X78614217Y-46300180D02*
X78566598Y-46347800D01*
X78566598Y-46347800D02*
X78471360Y-46395419D01*
X78471360Y-46395419D02*
X78328503Y-46395419D01*
X79090408Y-46395419D02*
X79090408Y-45728752D01*
X79090408Y-45823990D02*
X79138027Y-45776371D01*
X79138027Y-45776371D02*
X79233265Y-45728752D01*
X79233265Y-45728752D02*
X79376122Y-45728752D01*
X79376122Y-45728752D02*
X79471360Y-45776371D01*
X79471360Y-45776371D02*
X79518979Y-45871609D01*
X79518979Y-45871609D02*
X79518979Y-46395419D01*
X79518979Y-45871609D02*
X79566598Y-45776371D01*
X79566598Y-45776371D02*
X79661836Y-45728752D01*
X79661836Y-45728752D02*
X79804693Y-45728752D01*
X79804693Y-45728752D02*
X79899932Y-45776371D01*
X79899932Y-45776371D02*
X79947551Y-45871609D01*
X79947551Y-45871609D02*
X79947551Y-46395419D01*
X70280884Y-48005419D02*
X70280884Y-47005419D01*
X70280884Y-47005419D02*
X70661836Y-47005419D01*
X70661836Y-47005419D02*
X70757074Y-47053038D01*
X70757074Y-47053038D02*
X70804693Y-47100657D01*
X70804693Y-47100657D02*
X70852312Y-47195895D01*
X70852312Y-47195895D02*
X70852312Y-47338752D01*
X70852312Y-47338752D02*
X70804693Y-47433990D01*
X70804693Y-47433990D02*
X70757074Y-47481609D01*
X70757074Y-47481609D02*
X70661836Y-47529228D01*
X70661836Y-47529228D02*
X70280884Y-47529228D01*
X71280884Y-48005419D02*
X71280884Y-47338752D01*
X71280884Y-47005419D02*
X71233265Y-47053038D01*
X71233265Y-47053038D02*
X71280884Y-47100657D01*
X71280884Y-47100657D02*
X71328503Y-47053038D01*
X71328503Y-47053038D02*
X71280884Y-47005419D01*
X71280884Y-47005419D02*
X71280884Y-47100657D01*
X72185645Y-47957800D02*
X72090407Y-48005419D01*
X72090407Y-48005419D02*
X71899931Y-48005419D01*
X71899931Y-48005419D02*
X71804693Y-47957800D01*
X71804693Y-47957800D02*
X71757074Y-47910180D01*
X71757074Y-47910180D02*
X71709455Y-47814942D01*
X71709455Y-47814942D02*
X71709455Y-47529228D01*
X71709455Y-47529228D02*
X71757074Y-47433990D01*
X71757074Y-47433990D02*
X71804693Y-47386371D01*
X71804693Y-47386371D02*
X71899931Y-47338752D01*
X71899931Y-47338752D02*
X72090407Y-47338752D01*
X72090407Y-47338752D02*
X72185645Y-47386371D01*
X72757074Y-48005419D02*
X72661836Y-47957800D01*
X72661836Y-47957800D02*
X72614217Y-47910180D01*
X72614217Y-47910180D02*
X72566598Y-47814942D01*
X72566598Y-47814942D02*
X72566598Y-47529228D01*
X72566598Y-47529228D02*
X72614217Y-47433990D01*
X72614217Y-47433990D02*
X72661836Y-47386371D01*
X72661836Y-47386371D02*
X72757074Y-47338752D01*
X72757074Y-47338752D02*
X72899931Y-47338752D01*
X72899931Y-47338752D02*
X72995169Y-47386371D01*
X72995169Y-47386371D02*
X73042788Y-47433990D01*
X73042788Y-47433990D02*
X73090407Y-47529228D01*
X73090407Y-47529228D02*
X73090407Y-47814942D01*
X73090407Y-47814942D02*
X73042788Y-47910180D01*
X73042788Y-47910180D02*
X72995169Y-47957800D01*
X72995169Y-47957800D02*
X72899931Y-48005419D01*
X72899931Y-48005419D02*
X72757074Y-48005419D01*
X73471360Y-47100657D02*
X73518979Y-47053038D01*
X73518979Y-47053038D02*
X73614217Y-47005419D01*
X73614217Y-47005419D02*
X73852312Y-47005419D01*
X73852312Y-47005419D02*
X73947550Y-47053038D01*
X73947550Y-47053038D02*
X73995169Y-47100657D01*
X73995169Y-47100657D02*
X74042788Y-47195895D01*
X74042788Y-47195895D02*
X74042788Y-47291133D01*
X74042788Y-47291133D02*
X73995169Y-47433990D01*
X73995169Y-47433990D02*
X73423741Y-48005419D01*
X73423741Y-48005419D02*
X74042788Y-48005419D01*
X75233265Y-47005419D02*
X75233265Y-47814942D01*
X75233265Y-47814942D02*
X75280884Y-47910180D01*
X75280884Y-47910180D02*
X75328503Y-47957800D01*
X75328503Y-47957800D02*
X75423741Y-48005419D01*
X75423741Y-48005419D02*
X75614217Y-48005419D01*
X75614217Y-48005419D02*
X75709455Y-47957800D01*
X75709455Y-47957800D02*
X75757074Y-47910180D01*
X75757074Y-47910180D02*
X75804693Y-47814942D01*
X75804693Y-47814942D02*
X75804693Y-47005419D01*
X76233265Y-47957800D02*
X76376122Y-48005419D01*
X76376122Y-48005419D02*
X76614217Y-48005419D01*
X76614217Y-48005419D02*
X76709455Y-47957800D01*
X76709455Y-47957800D02*
X76757074Y-47910180D01*
X76757074Y-47910180D02*
X76804693Y-47814942D01*
X76804693Y-47814942D02*
X76804693Y-47719704D01*
X76804693Y-47719704D02*
X76757074Y-47624466D01*
X76757074Y-47624466D02*
X76709455Y-47576847D01*
X76709455Y-47576847D02*
X76614217Y-47529228D01*
X76614217Y-47529228D02*
X76423741Y-47481609D01*
X76423741Y-47481609D02*
X76328503Y-47433990D01*
X76328503Y-47433990D02*
X76280884Y-47386371D01*
X76280884Y-47386371D02*
X76233265Y-47291133D01*
X76233265Y-47291133D02*
X76233265Y-47195895D01*
X76233265Y-47195895D02*
X76280884Y-47100657D01*
X76280884Y-47100657D02*
X76328503Y-47053038D01*
X76328503Y-47053038D02*
X76423741Y-47005419D01*
X76423741Y-47005419D02*
X76661836Y-47005419D01*
X76661836Y-47005419D02*
X76804693Y-47053038D01*
X77566598Y-47481609D02*
X77709455Y-47529228D01*
X77709455Y-47529228D02*
X77757074Y-47576847D01*
X77757074Y-47576847D02*
X77804693Y-47672085D01*
X77804693Y-47672085D02*
X77804693Y-47814942D01*
X77804693Y-47814942D02*
X77757074Y-47910180D01*
X77757074Y-47910180D02*
X77709455Y-47957800D01*
X77709455Y-47957800D02*
X77614217Y-48005419D01*
X77614217Y-48005419D02*
X77233265Y-48005419D01*
X77233265Y-48005419D02*
X77233265Y-47005419D01*
X77233265Y-47005419D02*
X77566598Y-47005419D01*
X77566598Y-47005419D02*
X77661836Y-47053038D01*
X77661836Y-47053038D02*
X77709455Y-47100657D01*
X77709455Y-47100657D02*
X77757074Y-47195895D01*
X77757074Y-47195895D02*
X77757074Y-47291133D01*
X77757074Y-47291133D02*
X77709455Y-47386371D01*
X77709455Y-47386371D02*
X77661836Y-47433990D01*
X77661836Y-47433990D02*
X77566598Y-47481609D01*
X77566598Y-47481609D02*
X77233265Y-47481609D01*
X78233265Y-47624466D02*
X78995170Y-47624466D01*
X79328503Y-47005419D02*
X79899931Y-47005419D01*
X79614217Y-48005419D02*
X79614217Y-47005419D01*
X80233265Y-48005419D02*
X80233265Y-47005419D01*
X80661836Y-48005419D02*
X80661836Y-47481609D01*
X80661836Y-47481609D02*
X80614217Y-47386371D01*
X80614217Y-47386371D02*
X80518979Y-47338752D01*
X80518979Y-47338752D02*
X80376122Y-47338752D01*
X80376122Y-47338752D02*
X80280884Y-47386371D01*
X80280884Y-47386371D02*
X80233265Y-47433990D01*
X81138027Y-48005419D02*
X81138027Y-47338752D01*
X81138027Y-47529228D02*
X81185646Y-47433990D01*
X81185646Y-47433990D02*
X81233265Y-47386371D01*
X81233265Y-47386371D02*
X81328503Y-47338752D01*
X81328503Y-47338752D02*
X81423741Y-47338752D01*
X81899932Y-48005419D02*
X81804694Y-47957800D01*
X81804694Y-47957800D02*
X81757075Y-47910180D01*
X81757075Y-47910180D02*
X81709456Y-47814942D01*
X81709456Y-47814942D02*
X81709456Y-47529228D01*
X81709456Y-47529228D02*
X81757075Y-47433990D01*
X81757075Y-47433990D02*
X81804694Y-47386371D01*
X81804694Y-47386371D02*
X81899932Y-47338752D01*
X81899932Y-47338752D02*
X82042789Y-47338752D01*
X82042789Y-47338752D02*
X82138027Y-47386371D01*
X82138027Y-47386371D02*
X82185646Y-47433990D01*
X82185646Y-47433990D02*
X82233265Y-47529228D01*
X82233265Y-47529228D02*
X82233265Y-47814942D01*
X82233265Y-47814942D02*
X82185646Y-47910180D01*
X82185646Y-47910180D02*
X82138027Y-47957800D01*
X82138027Y-47957800D02*
X82042789Y-48005419D01*
X82042789Y-48005419D02*
X81899932Y-48005419D01*
X83090408Y-47338752D02*
X83090408Y-48005419D01*
X82661837Y-47338752D02*
X82661837Y-47862561D01*
X82661837Y-47862561D02*
X82709456Y-47957800D01*
X82709456Y-47957800D02*
X82804694Y-48005419D01*
X82804694Y-48005419D02*
X82947551Y-48005419D01*
X82947551Y-48005419D02*
X83042789Y-47957800D01*
X83042789Y-47957800D02*
X83090408Y-47910180D01*
X83995170Y-47338752D02*
X83995170Y-48148276D01*
X83995170Y-48148276D02*
X83947551Y-48243514D01*
X83947551Y-48243514D02*
X83899932Y-48291133D01*
X83899932Y-48291133D02*
X83804694Y-48338752D01*
X83804694Y-48338752D02*
X83661837Y-48338752D01*
X83661837Y-48338752D02*
X83566599Y-48291133D01*
X83995170Y-47957800D02*
X83899932Y-48005419D01*
X83899932Y-48005419D02*
X83709456Y-48005419D01*
X83709456Y-48005419D02*
X83614218Y-47957800D01*
X83614218Y-47957800D02*
X83566599Y-47910180D01*
X83566599Y-47910180D02*
X83518980Y-47814942D01*
X83518980Y-47814942D02*
X83518980Y-47529228D01*
X83518980Y-47529228D02*
X83566599Y-47433990D01*
X83566599Y-47433990D02*
X83614218Y-47386371D01*
X83614218Y-47386371D02*
X83709456Y-47338752D01*
X83709456Y-47338752D02*
X83899932Y-47338752D01*
X83899932Y-47338752D02*
X83995170Y-47386371D01*
X84471361Y-48005419D02*
X84471361Y-47005419D01*
X84899932Y-48005419D02*
X84899932Y-47481609D01*
X84899932Y-47481609D02*
X84852313Y-47386371D01*
X84852313Y-47386371D02*
X84757075Y-47338752D01*
X84757075Y-47338752D02*
X84614218Y-47338752D01*
X84614218Y-47338752D02*
X84518980Y-47386371D01*
X84518980Y-47386371D02*
X84471361Y-47433990D01*
X86138028Y-48005419D02*
X86138028Y-47005419D01*
X86138028Y-47005419D02*
X86376123Y-47005419D01*
X86376123Y-47005419D02*
X86518980Y-47053038D01*
X86518980Y-47053038D02*
X86614218Y-47148276D01*
X86614218Y-47148276D02*
X86661837Y-47243514D01*
X86661837Y-47243514D02*
X86709456Y-47433990D01*
X86709456Y-47433990D02*
X86709456Y-47576847D01*
X86709456Y-47576847D02*
X86661837Y-47767323D01*
X86661837Y-47767323D02*
X86614218Y-47862561D01*
X86614218Y-47862561D02*
X86518980Y-47957800D01*
X86518980Y-47957800D02*
X86376123Y-48005419D01*
X86376123Y-48005419D02*
X86138028Y-48005419D01*
X87566599Y-48005419D02*
X87566599Y-47481609D01*
X87566599Y-47481609D02*
X87518980Y-47386371D01*
X87518980Y-47386371D02*
X87423742Y-47338752D01*
X87423742Y-47338752D02*
X87233266Y-47338752D01*
X87233266Y-47338752D02*
X87138028Y-47386371D01*
X87566599Y-47957800D02*
X87471361Y-48005419D01*
X87471361Y-48005419D02*
X87233266Y-48005419D01*
X87233266Y-48005419D02*
X87138028Y-47957800D01*
X87138028Y-47957800D02*
X87090409Y-47862561D01*
X87090409Y-47862561D02*
X87090409Y-47767323D01*
X87090409Y-47767323D02*
X87138028Y-47672085D01*
X87138028Y-47672085D02*
X87233266Y-47624466D01*
X87233266Y-47624466D02*
X87471361Y-47624466D01*
X87471361Y-47624466D02*
X87566599Y-47576847D01*
X88471361Y-47338752D02*
X88471361Y-48005419D01*
X88042790Y-47338752D02*
X88042790Y-47862561D01*
X88042790Y-47862561D02*
X88090409Y-47957800D01*
X88090409Y-47957800D02*
X88185647Y-48005419D01*
X88185647Y-48005419D02*
X88328504Y-48005419D01*
X88328504Y-48005419D02*
X88423742Y-47957800D01*
X88423742Y-47957800D02*
X88471361Y-47910180D01*
X89376123Y-47338752D02*
X89376123Y-48148276D01*
X89376123Y-48148276D02*
X89328504Y-48243514D01*
X89328504Y-48243514D02*
X89280885Y-48291133D01*
X89280885Y-48291133D02*
X89185647Y-48338752D01*
X89185647Y-48338752D02*
X89042790Y-48338752D01*
X89042790Y-48338752D02*
X88947552Y-48291133D01*
X89376123Y-47957800D02*
X89280885Y-48005419D01*
X89280885Y-48005419D02*
X89090409Y-48005419D01*
X89090409Y-48005419D02*
X88995171Y-47957800D01*
X88995171Y-47957800D02*
X88947552Y-47910180D01*
X88947552Y-47910180D02*
X88899933Y-47814942D01*
X88899933Y-47814942D02*
X88899933Y-47529228D01*
X88899933Y-47529228D02*
X88947552Y-47433990D01*
X88947552Y-47433990D02*
X88995171Y-47386371D01*
X88995171Y-47386371D02*
X89090409Y-47338752D01*
X89090409Y-47338752D02*
X89280885Y-47338752D01*
X89280885Y-47338752D02*
X89376123Y-47386371D01*
X89852314Y-48005419D02*
X89852314Y-47005419D01*
X90280885Y-48005419D02*
X90280885Y-47481609D01*
X90280885Y-47481609D02*
X90233266Y-47386371D01*
X90233266Y-47386371D02*
X90138028Y-47338752D01*
X90138028Y-47338752D02*
X89995171Y-47338752D01*
X89995171Y-47338752D02*
X89899933Y-47386371D01*
X89899933Y-47386371D02*
X89852314Y-47433990D01*
X90614219Y-47338752D02*
X90995171Y-47338752D01*
X90757076Y-47005419D02*
X90757076Y-47862561D01*
X90757076Y-47862561D02*
X90804695Y-47957800D01*
X90804695Y-47957800D02*
X90899933Y-48005419D01*
X90899933Y-48005419D02*
X90995171Y-48005419D01*
X91709457Y-47957800D02*
X91614219Y-48005419D01*
X91614219Y-48005419D02*
X91423743Y-48005419D01*
X91423743Y-48005419D02*
X91328505Y-47957800D01*
X91328505Y-47957800D02*
X91280886Y-47862561D01*
X91280886Y-47862561D02*
X91280886Y-47481609D01*
X91280886Y-47481609D02*
X91328505Y-47386371D01*
X91328505Y-47386371D02*
X91423743Y-47338752D01*
X91423743Y-47338752D02*
X91614219Y-47338752D01*
X91614219Y-47338752D02*
X91709457Y-47386371D01*
X91709457Y-47386371D02*
X91757076Y-47481609D01*
X91757076Y-47481609D02*
X91757076Y-47576847D01*
X91757076Y-47576847D02*
X91280886Y-47672085D01*
X92185648Y-48005419D02*
X92185648Y-47338752D01*
X92185648Y-47529228D02*
X92233267Y-47433990D01*
X92233267Y-47433990D02*
X92280886Y-47386371D01*
X92280886Y-47386371D02*
X92376124Y-47338752D01*
X92376124Y-47338752D02*
X92471362Y-47338752D01*
X92804696Y-48005419D02*
X92804696Y-47005419D01*
X92804696Y-47386371D02*
X92899934Y-47338752D01*
X92899934Y-47338752D02*
X93090410Y-47338752D01*
X93090410Y-47338752D02*
X93185648Y-47386371D01*
X93185648Y-47386371D02*
X93233267Y-47433990D01*
X93233267Y-47433990D02*
X93280886Y-47529228D01*
X93280886Y-47529228D02*
X93280886Y-47814942D01*
X93280886Y-47814942D02*
X93233267Y-47910180D01*
X93233267Y-47910180D02*
X93185648Y-47957800D01*
X93185648Y-47957800D02*
X93090410Y-48005419D01*
X93090410Y-48005419D02*
X92899934Y-48005419D01*
X92899934Y-48005419D02*
X92804696Y-47957800D01*
X93852315Y-48005419D02*
X93757077Y-47957800D01*
X93757077Y-47957800D02*
X93709458Y-47910180D01*
X93709458Y-47910180D02*
X93661839Y-47814942D01*
X93661839Y-47814942D02*
X93661839Y-47529228D01*
X93661839Y-47529228D02*
X93709458Y-47433990D01*
X93709458Y-47433990D02*
X93757077Y-47386371D01*
X93757077Y-47386371D02*
X93852315Y-47338752D01*
X93852315Y-47338752D02*
X93995172Y-47338752D01*
X93995172Y-47338752D02*
X94090410Y-47386371D01*
X94090410Y-47386371D02*
X94138029Y-47433990D01*
X94138029Y-47433990D02*
X94185648Y-47529228D01*
X94185648Y-47529228D02*
X94185648Y-47814942D01*
X94185648Y-47814942D02*
X94138029Y-47910180D01*
X94138029Y-47910180D02*
X94090410Y-47957800D01*
X94090410Y-47957800D02*
X93995172Y-48005419D01*
X93995172Y-48005419D02*
X93852315Y-48005419D01*
X95042791Y-48005419D02*
X95042791Y-47481609D01*
X95042791Y-47481609D02*
X94995172Y-47386371D01*
X94995172Y-47386371D02*
X94899934Y-47338752D01*
X94899934Y-47338752D02*
X94709458Y-47338752D01*
X94709458Y-47338752D02*
X94614220Y-47386371D01*
X95042791Y-47957800D02*
X94947553Y-48005419D01*
X94947553Y-48005419D02*
X94709458Y-48005419D01*
X94709458Y-48005419D02*
X94614220Y-47957800D01*
X94614220Y-47957800D02*
X94566601Y-47862561D01*
X94566601Y-47862561D02*
X94566601Y-47767323D01*
X94566601Y-47767323D02*
X94614220Y-47672085D01*
X94614220Y-47672085D02*
X94709458Y-47624466D01*
X94709458Y-47624466D02*
X94947553Y-47624466D01*
X94947553Y-47624466D02*
X95042791Y-47576847D01*
X95518982Y-48005419D02*
X95518982Y-47338752D01*
X95518982Y-47529228D02*
X95566601Y-47433990D01*
X95566601Y-47433990D02*
X95614220Y-47386371D01*
X95614220Y-47386371D02*
X95709458Y-47338752D01*
X95709458Y-47338752D02*
X95804696Y-47338752D01*
X96566601Y-48005419D02*
X96566601Y-47005419D01*
X96566601Y-47957800D02*
X96471363Y-48005419D01*
X96471363Y-48005419D02*
X96280887Y-48005419D01*
X96280887Y-48005419D02*
X96185649Y-47957800D01*
X96185649Y-47957800D02*
X96138030Y-47910180D01*
X96138030Y-47910180D02*
X96090411Y-47814942D01*
X96090411Y-47814942D02*
X96090411Y-47529228D01*
X96090411Y-47529228D02*
X96138030Y-47433990D01*
X96138030Y-47433990D02*
X96185649Y-47386371D01*
X96185649Y-47386371D02*
X96280887Y-47338752D01*
X96280887Y-47338752D02*
X96471363Y-47338752D01*
X96471363Y-47338752D02*
X96566601Y-47386371D01*
X63768893Y-70716038D02*
X63673655Y-70668419D01*
X63673655Y-70668419D02*
X63530798Y-70668419D01*
X63530798Y-70668419D02*
X63387941Y-70716038D01*
X63387941Y-70716038D02*
X63292703Y-70811276D01*
X63292703Y-70811276D02*
X63245084Y-70906514D01*
X63245084Y-70906514D02*
X63197465Y-71096990D01*
X63197465Y-71096990D02*
X63197465Y-71239847D01*
X63197465Y-71239847D02*
X63245084Y-71430323D01*
X63245084Y-71430323D02*
X63292703Y-71525561D01*
X63292703Y-71525561D02*
X63387941Y-71620800D01*
X63387941Y-71620800D02*
X63530798Y-71668419D01*
X63530798Y-71668419D02*
X63626036Y-71668419D01*
X63626036Y-71668419D02*
X63768893Y-71620800D01*
X63768893Y-71620800D02*
X63816512Y-71573180D01*
X63816512Y-71573180D02*
X63816512Y-71239847D01*
X63816512Y-71239847D02*
X63626036Y-71239847D01*
X64245084Y-71668419D02*
X64245084Y-70668419D01*
X64245084Y-70668419D02*
X64626036Y-70668419D01*
X64626036Y-70668419D02*
X64721274Y-70716038D01*
X64721274Y-70716038D02*
X64768893Y-70763657D01*
X64768893Y-70763657D02*
X64816512Y-70858895D01*
X64816512Y-70858895D02*
X64816512Y-71001752D01*
X64816512Y-71001752D02*
X64768893Y-71096990D01*
X64768893Y-71096990D02*
X64721274Y-71144609D01*
X64721274Y-71144609D02*
X64626036Y-71192228D01*
X64626036Y-71192228D02*
X64245084Y-71192228D01*
X65245084Y-71668419D02*
X65245084Y-70668419D01*
X65911750Y-70668419D02*
X66102226Y-70668419D01*
X66102226Y-70668419D02*
X66197464Y-70716038D01*
X66197464Y-70716038D02*
X66292702Y-70811276D01*
X66292702Y-70811276D02*
X66340321Y-71001752D01*
X66340321Y-71001752D02*
X66340321Y-71335085D01*
X66340321Y-71335085D02*
X66292702Y-71525561D01*
X66292702Y-71525561D02*
X66197464Y-71620800D01*
X66197464Y-71620800D02*
X66102226Y-71668419D01*
X66102226Y-71668419D02*
X65911750Y-71668419D01*
X65911750Y-71668419D02*
X65816512Y-71620800D01*
X65816512Y-71620800D02*
X65721274Y-71525561D01*
X65721274Y-71525561D02*
X65673655Y-71335085D01*
X65673655Y-71335085D02*
X65673655Y-71001752D01*
X65673655Y-71001752D02*
X65721274Y-70811276D01*
X65721274Y-70811276D02*
X65816512Y-70716038D01*
X65816512Y-70716038D02*
X65911750Y-70668419D01*
X68245084Y-70763657D02*
X68292703Y-70716038D01*
X68292703Y-70716038D02*
X68387941Y-70668419D01*
X68387941Y-70668419D02*
X68626036Y-70668419D01*
X68626036Y-70668419D02*
X68721274Y-70716038D01*
X68721274Y-70716038D02*
X68768893Y-70763657D01*
X68768893Y-70763657D02*
X68816512Y-70858895D01*
X68816512Y-70858895D02*
X68816512Y-70954133D01*
X68816512Y-70954133D02*
X68768893Y-71096990D01*
X68768893Y-71096990D02*
X68197465Y-71668419D01*
X68197465Y-71668419D02*
X68816512Y-71668419D01*
X70673656Y-70668419D02*
X71292703Y-70668419D01*
X71292703Y-70668419D02*
X70959370Y-71049371D01*
X70959370Y-71049371D02*
X71102227Y-71049371D01*
X71102227Y-71049371D02*
X71197465Y-71096990D01*
X71197465Y-71096990D02*
X71245084Y-71144609D01*
X71245084Y-71144609D02*
X71292703Y-71239847D01*
X71292703Y-71239847D02*
X71292703Y-71477942D01*
X71292703Y-71477942D02*
X71245084Y-71573180D01*
X71245084Y-71573180D02*
X71197465Y-71620800D01*
X71197465Y-71620800D02*
X71102227Y-71668419D01*
X71102227Y-71668419D02*
X70816513Y-71668419D01*
X70816513Y-71668419D02*
X70721275Y-71620800D01*
X70721275Y-71620800D02*
X70673656Y-71573180D01*
X65530799Y-73278419D02*
X65530799Y-72278419D01*
X65530799Y-72278419D02*
X65768894Y-72278419D01*
X65768894Y-72278419D02*
X65911751Y-72326038D01*
X65911751Y-72326038D02*
X66006989Y-72421276D01*
X66006989Y-72421276D02*
X66054608Y-72516514D01*
X66054608Y-72516514D02*
X66102227Y-72706990D01*
X66102227Y-72706990D02*
X66102227Y-72849847D01*
X66102227Y-72849847D02*
X66054608Y-73040323D01*
X66054608Y-73040323D02*
X66006989Y-73135561D01*
X66006989Y-73135561D02*
X65911751Y-73230800D01*
X65911751Y-73230800D02*
X65768894Y-73278419D01*
X65768894Y-73278419D02*
X65530799Y-73278419D01*
X68054609Y-72897466D02*
X68816514Y-72897466D01*
X70816514Y-72897466D02*
X71578419Y-72897466D01*
X71197466Y-73278419D02*
X71197466Y-72516514D01*
D11*
X114236666Y-45214819D02*
X113903333Y-44738628D01*
X113665238Y-45214819D02*
X113665238Y-44214819D01*
X113665238Y-44214819D02*
X114046190Y-44214819D01*
X114046190Y-44214819D02*
X114141428Y-44262438D01*
X114141428Y-44262438D02*
X114189047Y-44310057D01*
X114189047Y-44310057D02*
X114236666Y-44405295D01*
X114236666Y-44405295D02*
X114236666Y-44548152D01*
X114236666Y-44548152D02*
X114189047Y-44643390D01*
X114189047Y-44643390D02*
X114141428Y-44691009D01*
X114141428Y-44691009D02*
X114046190Y-44738628D01*
X114046190Y-44738628D02*
X113665238Y-44738628D01*
X114665238Y-44691009D02*
X114998571Y-44691009D01*
X115141428Y-45214819D02*
X114665238Y-45214819D01*
X114665238Y-45214819D02*
X114665238Y-44214819D01*
X114665238Y-44214819D02*
X115141428Y-44214819D01*
X115903333Y-44691009D02*
X115570000Y-44691009D01*
X115570000Y-45214819D02*
X115570000Y-44214819D01*
X115570000Y-44214819D02*
X116046190Y-44214819D01*
X116570000Y-44214819D02*
X116570000Y-44452914D01*
X116331905Y-44357676D02*
X116570000Y-44452914D01*
X116570000Y-44452914D02*
X116808095Y-44357676D01*
X116427143Y-44643390D02*
X116570000Y-44452914D01*
X116570000Y-44452914D02*
X116712857Y-44643390D01*
X117331905Y-44214819D02*
X117331905Y-44452914D01*
X117093810Y-44357676D02*
X117331905Y-44452914D01*
X117331905Y-44452914D02*
X117570000Y-44357676D01*
X117189048Y-44643390D02*
X117331905Y-44452914D01*
X117331905Y-44452914D02*
X117474762Y-44643390D01*
X114236666Y-68074819D02*
X113903333Y-67598628D01*
X113665238Y-68074819D02*
X113665238Y-67074819D01*
X113665238Y-67074819D02*
X114046190Y-67074819D01*
X114046190Y-67074819D02*
X114141428Y-67122438D01*
X114141428Y-67122438D02*
X114189047Y-67170057D01*
X114189047Y-67170057D02*
X114236666Y-67265295D01*
X114236666Y-67265295D02*
X114236666Y-67408152D01*
X114236666Y-67408152D02*
X114189047Y-67503390D01*
X114189047Y-67503390D02*
X114141428Y-67551009D01*
X114141428Y-67551009D02*
X114046190Y-67598628D01*
X114046190Y-67598628D02*
X113665238Y-67598628D01*
X114665238Y-67551009D02*
X114998571Y-67551009D01*
X115141428Y-68074819D02*
X114665238Y-68074819D01*
X114665238Y-68074819D02*
X114665238Y-67074819D01*
X114665238Y-67074819D02*
X115141428Y-67074819D01*
X115903333Y-67551009D02*
X115570000Y-67551009D01*
X115570000Y-68074819D02*
X115570000Y-67074819D01*
X115570000Y-67074819D02*
X116046190Y-67074819D01*
X116570000Y-67074819D02*
X116570000Y-67312914D01*
X116331905Y-67217676D02*
X116570000Y-67312914D01*
X116570000Y-67312914D02*
X116808095Y-67217676D01*
X116427143Y-67503390D02*
X116570000Y-67312914D01*
X116570000Y-67312914D02*
X116712857Y-67503390D01*
X117331905Y-67074819D02*
X117331905Y-67312914D01*
X117093810Y-67217676D02*
X117331905Y-67312914D01*
X117331905Y-67312914D02*
X117570000Y-67217676D01*
X117189048Y-67503390D02*
X117331905Y-67312914D01*
X117331905Y-67312914D02*
X117474762Y-67503390D01*
X57644819Y-68913333D02*
X58359104Y-68913333D01*
X58359104Y-68913333D02*
X58501961Y-68960952D01*
X58501961Y-68960952D02*
X58597200Y-69056190D01*
X58597200Y-69056190D02*
X58644819Y-69199047D01*
X58644819Y-69199047D02*
X58644819Y-69294285D01*
X57644819Y-68532380D02*
X57644819Y-67913333D01*
X57644819Y-67913333D02*
X58025771Y-68246666D01*
X58025771Y-68246666D02*
X58025771Y-68103809D01*
X58025771Y-68103809D02*
X58073390Y-68008571D01*
X58073390Y-68008571D02*
X58121009Y-67960952D01*
X58121009Y-67960952D02*
X58216247Y-67913333D01*
X58216247Y-67913333D02*
X58454342Y-67913333D01*
X58454342Y-67913333D02*
X58549580Y-67960952D01*
X58549580Y-67960952D02*
X58597200Y-68008571D01*
X58597200Y-68008571D02*
X58644819Y-68103809D01*
X58644819Y-68103809D02*
X58644819Y-68389523D01*
X58644819Y-68389523D02*
X58597200Y-68484761D01*
X58597200Y-68484761D02*
X58549580Y-68532380D01*
X108886666Y-64454819D02*
X108886666Y-65169104D01*
X108886666Y-65169104D02*
X108839047Y-65311961D01*
X108839047Y-65311961D02*
X108743809Y-65407200D01*
X108743809Y-65407200D02*
X108600952Y-65454819D01*
X108600952Y-65454819D02*
X108505714Y-65454819D01*
X109839047Y-64454819D02*
X109362857Y-64454819D01*
X109362857Y-64454819D02*
X109315238Y-64931009D01*
X109315238Y-64931009D02*
X109362857Y-64883390D01*
X109362857Y-64883390D02*
X109458095Y-64835771D01*
X109458095Y-64835771D02*
X109696190Y-64835771D01*
X109696190Y-64835771D02*
X109791428Y-64883390D01*
X109791428Y-64883390D02*
X109839047Y-64931009D01*
X109839047Y-64931009D02*
X109886666Y-65026247D01*
X109886666Y-65026247D02*
X109886666Y-65264342D01*
X109886666Y-65264342D02*
X109839047Y-65359580D01*
X109839047Y-65359580D02*
X109791428Y-65407200D01*
X109791428Y-65407200D02*
X109696190Y-65454819D01*
X109696190Y-65454819D02*
X109458095Y-65454819D01*
X109458095Y-65454819D02*
X109362857Y-65407200D01*
X109362857Y-65407200D02*
X109315238Y-65359580D01*
X52006666Y-45214819D02*
X51673333Y-44738628D01*
X51435238Y-45214819D02*
X51435238Y-44214819D01*
X51435238Y-44214819D02*
X51816190Y-44214819D01*
X51816190Y-44214819D02*
X51911428Y-44262438D01*
X51911428Y-44262438D02*
X51959047Y-44310057D01*
X51959047Y-44310057D02*
X52006666Y-44405295D01*
X52006666Y-44405295D02*
X52006666Y-44548152D01*
X52006666Y-44548152D02*
X51959047Y-44643390D01*
X51959047Y-44643390D02*
X51911428Y-44691009D01*
X51911428Y-44691009D02*
X51816190Y-44738628D01*
X51816190Y-44738628D02*
X51435238Y-44738628D01*
X52435238Y-44691009D02*
X52768571Y-44691009D01*
X52911428Y-45214819D02*
X52435238Y-45214819D01*
X52435238Y-45214819D02*
X52435238Y-44214819D01*
X52435238Y-44214819D02*
X52911428Y-44214819D01*
X53673333Y-44691009D02*
X53340000Y-44691009D01*
X53340000Y-45214819D02*
X53340000Y-44214819D01*
X53340000Y-44214819D02*
X53816190Y-44214819D01*
X54340000Y-44214819D02*
X54340000Y-44452914D01*
X54101905Y-44357676D02*
X54340000Y-44452914D01*
X54340000Y-44452914D02*
X54578095Y-44357676D01*
X54197143Y-44643390D02*
X54340000Y-44452914D01*
X54340000Y-44452914D02*
X54482857Y-44643390D01*
X55101905Y-44214819D02*
X55101905Y-44452914D01*
X54863810Y-44357676D02*
X55101905Y-44452914D01*
X55101905Y-44452914D02*
X55340000Y-44357676D01*
X54959048Y-44643390D02*
X55101905Y-44452914D01*
X55101905Y-44452914D02*
X55244762Y-44643390D01*
X57644819Y-51133333D02*
X58359104Y-51133333D01*
X58359104Y-51133333D02*
X58501961Y-51180952D01*
X58501961Y-51180952D02*
X58597200Y-51276190D01*
X58597200Y-51276190D02*
X58644819Y-51419047D01*
X58644819Y-51419047D02*
X58644819Y-51514285D01*
X57978152Y-50228571D02*
X58644819Y-50228571D01*
X57597200Y-50466666D02*
X58311485Y-50704761D01*
X58311485Y-50704761D02*
X58311485Y-50085714D01*
X52006666Y-68074819D02*
X51673333Y-67598628D01*
X51435238Y-68074819D02*
X51435238Y-67074819D01*
X51435238Y-67074819D02*
X51816190Y-67074819D01*
X51816190Y-67074819D02*
X51911428Y-67122438D01*
X51911428Y-67122438D02*
X51959047Y-67170057D01*
X51959047Y-67170057D02*
X52006666Y-67265295D01*
X52006666Y-67265295D02*
X52006666Y-67408152D01*
X52006666Y-67408152D02*
X51959047Y-67503390D01*
X51959047Y-67503390D02*
X51911428Y-67551009D01*
X51911428Y-67551009D02*
X51816190Y-67598628D01*
X51816190Y-67598628D02*
X51435238Y-67598628D01*
X52435238Y-67551009D02*
X52768571Y-67551009D01*
X52911428Y-68074819D02*
X52435238Y-68074819D01*
X52435238Y-68074819D02*
X52435238Y-67074819D01*
X52435238Y-67074819D02*
X52911428Y-67074819D01*
X53673333Y-67551009D02*
X53340000Y-67551009D01*
X53340000Y-68074819D02*
X53340000Y-67074819D01*
X53340000Y-67074819D02*
X53816190Y-67074819D01*
X54340000Y-67074819D02*
X54340000Y-67312914D01*
X54101905Y-67217676D02*
X54340000Y-67312914D01*
X54340000Y-67312914D02*
X54578095Y-67217676D01*
X54197143Y-67503390D02*
X54340000Y-67312914D01*
X54340000Y-67312914D02*
X54482857Y-67503390D01*
X55101905Y-67074819D02*
X55101905Y-67312914D01*
X54863810Y-67217676D02*
X55101905Y-67312914D01*
X55101905Y-67312914D02*
X55340000Y-67217676D01*
X54959048Y-67503390D02*
X55101905Y-67312914D01*
X55101905Y-67312914D02*
X55244762Y-67503390D01*
D10*
X59606580Y-59856666D02*
X58892295Y-59856666D01*
X58892295Y-59856666D02*
X58749438Y-59809047D01*
X58749438Y-59809047D02*
X58654200Y-59713809D01*
X58654200Y-59713809D02*
X58606580Y-59570952D01*
X58606580Y-59570952D02*
X58606580Y-59475714D01*
X59511342Y-60285238D02*
X59558961Y-60332857D01*
X59558961Y-60332857D02*
X59606580Y-60428095D01*
X59606580Y-60428095D02*
X59606580Y-60666190D01*
X59606580Y-60666190D02*
X59558961Y-60761428D01*
X59558961Y-60761428D02*
X59511342Y-60809047D01*
X59511342Y-60809047D02*
X59416104Y-60856666D01*
X59416104Y-60856666D02*
X59320866Y-60856666D01*
X59320866Y-60856666D02*
X59178009Y-60809047D01*
X59178009Y-60809047D02*
X58606580Y-60237619D01*
X58606580Y-60237619D02*
X58606580Y-60856666D01*
D11*
X56264819Y-60023333D02*
X56979104Y-60023333D01*
X56979104Y-60023333D02*
X57121961Y-60070952D01*
X57121961Y-60070952D02*
X57217200Y-60166190D01*
X57217200Y-60166190D02*
X57264819Y-60309047D01*
X57264819Y-60309047D02*
X57264819Y-60404285D01*
X57264819Y-59023333D02*
X57264819Y-59594761D01*
X57264819Y-59309047D02*
X56264819Y-59309047D01*
X56264819Y-59309047D02*
X56407676Y-59404285D01*
X56407676Y-59404285D02*
X56502914Y-59499523D01*
X56502914Y-59499523D02*
X56550533Y-59594761D01*
D12*
%TO.C,J3*%
X62230000Y-69910000D02*
X110550000Y-69910000D01*
X62230000Y-69910000D02*
X62230000Y-67250000D01*
X110550000Y-69910000D02*
X110550000Y-67250000D01*
X59630000Y-68580000D02*
X59630000Y-67250000D01*
X59630000Y-67250000D02*
X60960000Y-67250000D01*
X62230000Y-67250000D02*
X110550000Y-67250000D01*
%TO.C,J5*%
X110550000Y-60960000D02*
X110550000Y-55820000D01*
X110550000Y-60960000D02*
X107890000Y-60960000D01*
X110550000Y-55820000D02*
X107890000Y-55820000D01*
X109220000Y-63560000D02*
X107890000Y-63560000D01*
X107890000Y-63560000D02*
X107890000Y-62230000D01*
X107890000Y-60960000D02*
X107890000Y-55820000D01*
%TO.C,J4*%
X62230000Y-52130000D02*
X110550000Y-52130000D01*
X62230000Y-52130000D02*
X62230000Y-49470000D01*
X110550000Y-52130000D02*
X110550000Y-49470000D01*
X59630000Y-50800000D02*
X59630000Y-49470000D01*
X59630000Y-49470000D02*
X60960000Y-49470000D01*
X62230000Y-49470000D02*
X110550000Y-49470000D01*
%TO.C,J1*%
X41040000Y-52380000D02*
X40520000Y-52380000D01*
X40520000Y-52380000D02*
X40520000Y-67000000D01*
X56000000Y-53030000D02*
X52670000Y-53030000D01*
X56000000Y-53030000D02*
X56000000Y-66350000D01*
X41040000Y-53030000D02*
X41040000Y-52380000D01*
X41040000Y-53030000D02*
X49150000Y-53030000D01*
X56220000Y-55290000D02*
X56220000Y-57090000D01*
X56000000Y-66350000D02*
X52670000Y-66350000D01*
X49150000Y-66350000D02*
X41040000Y-66350000D01*
X41040000Y-67000000D02*
X41040000Y-66350000D01*
X40520000Y-67000000D02*
X41040000Y-67000000D01*
%TD*%
M02*
